<svg width="603" height="368" viewBox="0 0 603 368" fill="none" xmlns="http://www.w3.org/2000/svg">
<path d="M339.661 263.433C346.063 257.766 351.618 252.219 356.404 247.055C345.781 243.339 334.683 239.1 323.2 234.28C312.971 229.99 303.286 225.586 294.169 221.169C295.358 227.841 296.373 235.151 297.073 243.12C297.424 247.246 297.718 251.532 297.868 255.954C298.397 270.108 297.675 282.817 296.432 293.686C306.293 288.352 317.597 281.307 329.403 272.02C333.036 269.15 336.471 266.285 339.661 263.433Z" fill="#3BA27A"/>
<path d="M239.644 217.955C243.146 215.902 246.636 213.888 250.148 211.837L255.549 208.696C258.082 207.218 260.597 205.766 263.131 204.287C254.441 199.253 245.42 193.707 236.175 187.637C226.372 181.155 217.226 174.634 208.722 168.236C207.025 175.408 205.419 183.347 204.184 191.987L203.448 197.457C203.306 198.813 203.149 200.185 202.992 201.558C202.148 209.529 201.731 217.071 201.575 224.105C201.548 226.401 201.529 228.596 201.554 230.782C201.579 233.979 201.653 237.076 201.756 240.004C205.655 237.732 209.583 235.469 213.475 233.184C215.128 232.223 216.782 231.262 218.442 230.282C225.497 226.18 232.589 222.058 239.644 217.955Z" fill="#446DB7"/>
<path d="M112.358 74.8973L39.0113 83.6036C45.1516 73.8993 51.5638 62.5326 57.6245 49.5317C63.202 37.5901 67.4718 26.3133 70.8152 16.1136C75.8412 24.3008 81.3121 32.7521 87.2325 41.3437C95.6502 53.524 104.078 64.6958 112.358 74.8973ZM412.884 263.313C403.29 261.083 394.103 258.709 385.355 256.223C389.61 267.149 393.805 280.559 396.671 296.149C398.742 307.382 399.75 317.713 400.145 326.845C407.848 319.959 416.228 311.705 424.671 301.895C434.295 290.705 441.972 279.871 448.06 270.203C436.892 268.405 425.117 266.149 412.884 263.313Z" fill="#F14947"/>
<path d="M65.0183 31.0881C64.7979 30.7325 64.9065 30.2843 65.2621 30.0639L75.4958 23.4399C75.8418 23.2167 76.2928 23.3157 76.5132 23.6713C76.7336 24.0269 76.625 24.4751 76.279 24.6983L66.0357 31.3195C65.7945 31.4688 65.5165 31.4927 65.2995 31.3779C65.1731 31.3101 65.084 31.2218 65.0183 31.0881ZM90.6416 76.3057C90.4032 75.9761 90.4858 75.51 90.8414 75.2896L104.97 65.5061C105.299 65.2677 105.756 65.3475 105.979 65.6934C106.208 66.0202 106.135 66.4891 105.779 66.7095L91.6481 76.5027C91.4261 76.6575 91.1221 76.6634 90.8858 76.543C90.8047 76.4988 90.7128 76.4201 90.6416 76.3057ZM58.4807 48.0484C58.2423 47.7189 58.3249 47.2528 58.6516 47.024L80.602 31.0247C80.9315 30.7864 81.4004 30.8593 81.6292 31.186C81.858 31.5128 81.785 31.9817 81.4555 32.2201L59.5135 48.1905C59.2832 48.3741 58.9791 48.3801 58.736 48.2473C58.6357 48.1975 58.5438 48.1188 58.4807 48.0484ZM49.3117 65.3118C49.0829 64.985 49.1655 64.5189 49.5114 64.2957L85.7657 39.1683C86.0828 38.9368 86.5517 39.0097 86.7721 39.3653C87.0009 39.6921 86.9184 40.1582 86.5724 40.3814L50.3278 65.5116C50.1058 65.6664 49.8017 65.6723 49.5655 65.5519C49.4844 65.5077 49.3953 65.4194 49.3117 65.3118ZM57.6701 81.666C57.4937 81.3023 57.6216 80.8596 57.9853 80.6832L99.7557 58.5469C100.122 58.3609 100.565 58.4888 100.738 58.8621C100.915 59.2259 100.79 59.6588 100.423 59.8449L58.6528 81.9812C58.4199 82.1016 58.1792 82.105 57.9718 81.993C57.8537 81.8963 57.7357 81.7996 57.6701 81.666ZM38.3994 83.9897C38.1762 83.6437 38.2876 83.1859 38.6336 82.9627L92.747 49.0674C93.1026 48.8469 93.5508 48.9556 93.7712 49.3112C93.9848 49.6544 93.883 50.115 93.5274 50.3354L39.414 84.2308C39.1756 84.3704 38.9059 84.3655 38.6985 84.2534C38.5542 84.2117 38.4623 84.133 38.3994 83.9897ZM201.593 224.152C201.737 224.194 201.89 224.28 202.055 224.359C203.791 225.277 204.416 227.407 203.5 229.134C203.067 229.947 202.358 230.524 201.565 230.816L201.593 224.152ZM214.876 226.458C216.838 226.378 218.45 227.908 218.535 229.851C218.537 229.987 218.538 230.164 218.523 230.327C216.872 231.278 215.227 232.241 213.556 233.228C212.384 232.702 211.556 231.525 211.516 230.147C211.405 228.186 212.911 226.547 214.876 226.458ZM203.474 197.475C203.703 197.728 204.02 197.966 204.363 198.149C206.099 199.067 208.205 198.383 209.121 196.656C210.025 194.937 209.38 192.801 207.663 191.888C206.533 191.29 205.243 191.386 204.212 191.996L203.474 197.475ZM217.312 210.523C219.022 211.423 219.674 213.572 218.76 215.289C217.854 217.018 215.713 217.682 214.005 216.771C212.295 215.87 211.641 213.732 212.557 212.005C213.461 210.285 215.602 209.622 217.312 210.523ZM223.49 183.804C225.197 184.715 225.851 186.853 224.935 188.58C224.032 190.3 221.89 190.963 220.18 190.062C218.47 189.162 217.819 187.013 218.732 185.296C219.638 183.567 221.753 182.885 223.49 183.804ZM234.702 202.151C236.413 203.052 237.067 205.19 236.151 206.917C235.247 208.637 233.103 209.31 231.396 208.399C229.685 207.499 229.031 205.36 229.938 203.631C230.851 201.914 232.966 201.232 234.702 202.151ZM253.772 205.753C254.932 206.359 255.594 207.531 255.633 208.731L250.229 211.881C248.653 210.915 248.128 208.908 249.008 207.233C249.895 205.498 252.036 204.835 253.772 205.753ZM441.788 279.713L424.352 266.522C424.045 266.287 423.955 265.803 424.219 265.504C424.483 265.205 424.929 265.104 425.24 265.361L442.676 278.552C442.984 278.787 443.073 279.271 442.809 279.57C442.59 279.861 442.197 279.957 441.88 279.792C441.843 279.74 441.817 279.722 441.788 279.713ZM436.209 287.474L405.263 262.195C404.961 261.941 404.91 261.467 405.173 261.168C405.43 260.857 405.894 260.803 406.193 261.067L437.14 286.346C437.442 286.6 437.493 287.073 437.239 287.375C437.019 287.666 436.616 287.727 436.327 287.57C436.31 287.524 436.264 287.5 436.209 287.474ZM430.189 295.284L384.89 256.787C384.591 256.524 384.537 256.06 384.803 255.751C385.057 255.449 385.531 255.398 385.823 255.65L431.122 294.146C431.431 294.413 431.485 294.877 431.218 295.185C430.973 295.458 430.616 295.501 430.325 295.355C430.252 295.354 430.244 295.31 430.189 295.284ZM424.177 302.45L389.003 268.422C388.722 268.133 388.694 267.687 388.995 267.367C389.287 267.076 389.733 267.049 390.053 267.35L425.212 301.394C425.493 301.684 425.528 302.142 425.217 302.459C424.99 302.706 424.63 302.758 424.342 302.602C424.295 302.547 424.224 302.505 424.177 302.45ZM417.884 309.4L392.218 279.412C391.942 279.103 391.991 278.648 392.3 278.372C392.618 278.099 393.067 278.135 393.342 278.444L418.999 308.429C419.274 308.738 419.236 309.196 418.927 309.472C418.679 309.681 418.357 309.714 418.094 309.575C418.013 309.531 417.95 309.461 417.884 309.4ZM411.437 316.054L395.716 294.654C395.475 294.334 395.558 293.868 395.861 293.611C396.178 293.38 396.647 293.453 396.894 293.753L412.614 315.154C412.853 315.484 412.77 315.95 412.469 316.196C412.239 316.38 411.935 316.386 411.699 316.266C411.574 316.23 411.508 316.169 411.437 316.054ZM406.552 320.836L398.014 308.965C397.785 308.638 397.858 308.169 398.187 307.931C398.514 307.702 398.983 307.775 399.212 308.102L407.75 319.973C407.979 320.299 407.896 320.765 407.576 321.007C407.346 321.19 407.032 321.194 406.799 321.063C406.707 320.985 406.626 320.941 406.552 320.836ZM180.205 145.191L110.91 169.028C112.028 160.865 113.591 152.1 115.794 142.853C120.008 125.201 125.53 109.844 131.182 96.9965C138.494 105.135 146.494 113.567 155.202 122.109C163.712 130.469 172.103 138.159 180.205 145.191ZM509.031 276.76C498.844 276.225 489.064 275.432 479.741 274.468C483.433 282.833 487.067 291.942 490.468 301.818C495.686 316.92 499.429 331.17 502.161 344.084C510.691 334.518 519.836 323.002 528.822 309.439C536.303 298.162 542.37 287.374 547.354 277.45C535.285 277.653 522.494 277.47 509.031 276.76Z" fill="#F9B53F"/>
<path d="M284.726 214.52C279.13 211.59 273.564 208.553 267.936 205.373C160.987 144.663 97.9131 60.9545 63.8304 1.42823C63.4252 0.737746 62.5496 0.484729 61.8303 0.881552C61.137 1.29634 60.8716 2.17879 61.2684 2.89814C95.5455 62.7621 158.96 146.913 266.489 207.927C271.304 210.673 276.143 213.302 280.927 215.831C284.109 217.522 287.311 219.177 290.484 220.751C396.53 274.194 497.846 281.806 566.199 278.297C566.995 278.246 567.63 277.564 567.6 276.732C567.551 275.926 566.879 275.293 566.044 275.334C496.564 278.954 392.728 270.937 284.726 214.52Z" fill="#F79748"/>
</svg>
