<svg width="1122" height="368" viewBox="0 0 1122 368" fill="none" xmlns="http://www.w3.org/2000/svg">
<path d="M782.465 264.722C776.213 259.249 770.804 253.894 766.151 248.91C776.829 245.356 787.991 241.299 799.551 236.685C809.848 232.577 819.605 228.358 828.798 224.125C827.458 230.548 826.277 237.585 825.395 245.258C824.949 249.231 824.557 253.358 824.305 257.617C823.451 271.247 823.877 283.488 824.865 293.958C815.157 288.798 804.05 281.987 792.494 273.016C788.938 270.243 785.58 267.476 782.465 264.722Z" fill="#3BA27A"/>
<path d="M883.233 221.157C879.789 219.172 876.355 217.223 872.901 215.241L867.589 212.203C865.098 210.773 862.624 209.369 860.133 207.939C868.912 203.112 878.034 197.791 887.392 191.967C897.315 185.747 906.585 179.488 915.211 173.346C916.737 180.258 918.155 187.907 919.186 196.231L919.794 201.5C919.903 202.806 920.028 204.129 920.153 205.451C920.81 213.13 921.052 220.394 921.044 227.169C921.019 229.38 920.987 231.493 920.911 233.599C920.813 236.678 920.667 239.66 920.497 242.48C916.662 240.283 912.799 238.093 908.971 235.884C907.344 234.955 905.718 234.026 904.086 233.078C897.147 229.111 890.172 225.124 883.233 221.157Z" fill="#446DB7"/>
<path d="M1013.44 83.6805L1086.37 92.236C1080.47 82.876 1074.34 71.9142 1068.6 59.3795C1063.31 47.8661 1059.32 36.9958 1056.22 27.1652C1051.02 35.0382 1045.37 43.1646 1039.27 51.425C1030.59 63.1357 1021.93 73.8752 1013.44 83.6805ZM709.466 264.435C719.082 262.31 728.297 260.046 737.076 257.672C732.581 268.184 728.089 281.089 724.871 296.097C722.547 306.91 721.303 316.857 720.698 325.651C713.178 319.001 705.014 311.032 696.822 301.565C687.486 290.766 680.083 280.314 674.237 270.99C685.412 269.283 697.204 267.138 709.466 264.435Z" fill="#F14947"/>
<path d="M1061.65 41.6C1061.88 41.2581 1061.78 40.8262 1061.43 40.6131L1051.38 34.21C1051.04 33.9942 1050.59 34.0885 1050.36 34.4305C1050.13 34.7724 1050.23 35.2043 1050.57 35.4201L1060.63 41.8205C1060.87 41.9648 1061.15 41.9885 1061.36 41.8784C1061.49 41.8134 1061.58 41.7286 1061.65 41.6ZM1035.06 85.0875C1035.31 84.7707 1035.23 84.3215 1034.88 84.1084L1021.02 74.6534C1020.7 74.4231 1020.24 74.4989 1020.01 74.8315C1019.78 75.1457 1019.84 75.5975 1020.19 75.8106L1034.05 85.2748C1034.27 85.4244 1034.57 85.4309 1034.81 85.3155C1034.89 85.273 1034.99 85.1975 1035.06 85.0875ZM1067.78 57.949C1068.02 57.6322 1067.95 57.1831 1067.63 56.962L1046.12 41.5027C1045.79 41.2723 1045.32 41.3415 1045.09 41.6556C1044.85 41.9698 1044.91 42.4216 1045.24 42.6519L1066.74 58.0834C1066.97 58.2608 1067.27 58.2673 1067.52 58.14C1067.62 58.0922 1067.71 58.0166 1067.78 57.949ZM1076.52 74.596C1076.76 74.2818 1076.68 73.8327 1076.34 73.617L1040.78 49.3334C1040.47 49.1097 1040 49.1788 1039.77 49.5208C1039.54 49.8349 1039.61 50.2841 1039.95 50.4998L1075.5 74.786C1075.72 74.9356 1076.02 74.9421 1076.26 74.8267C1076.34 74.7842 1076.43 74.6994 1076.52 74.596ZM1067.81 90.3266C1067.99 89.9767 1067.88 89.5501 1067.52 89.3794L1026.38 67.9635C1026.02 67.7835 1025.58 67.9056 1025.4 68.2648C1025.21 68.6147 1025.33 69.032 1025.69 69.212L1066.82 90.6279C1067.05 90.7443 1067.29 90.7482 1067.5 90.6407C1067.62 90.5479 1067.74 90.4551 1067.81 90.3266ZM1086.97 92.6093C1087.2 92.2767 1087.1 91.8355 1086.76 91.6197L1033.59 58.8505C1033.24 58.6374 1032.79 58.741 1032.56 59.0829C1032.34 59.413 1032.43 59.8568 1032.78 60.0699L1085.95 92.8391C1086.18 92.9741 1086.45 92.97 1086.66 92.8626C1086.81 92.8227 1086.9 92.7472 1086.97 92.6093ZM921.026 227.214C920.881 227.254 920.727 227.336 920.561 227.411C918.808 228.292 918.136 230.342 919.009 232.007C919.422 232.791 920.116 233.349 920.9 233.632L921.026 227.214ZM907.729 229.403C905.775 229.322 904.133 230.791 904.003 232.662C903.997 232.793 903.992 232.964 904.004 233.121C905.628 234.04 907.245 234.972 908.889 235.927C910.07 235.423 910.922 234.291 910.994 232.964C911.15 231.076 909.686 229.494 907.729 229.403ZM919.767 201.517C919.533 201.761 919.211 201.989 918.865 202.164C917.113 203.045 915.029 202.381 914.156 200.716C913.295 199.058 913.987 197.002 915.719 196.127C916.86 195.554 918.144 195.65 919.157 196.239L919.767 201.517ZM905.669 214.051C903.943 214.915 903.244 216.982 904.115 218.638C904.979 220.305 907.098 220.949 908.821 220.076C910.547 219.213 911.249 217.155 910.375 215.49C909.514 213.832 907.395 213.188 905.669 214.051ZM900.128 188.305C898.404 189.178 897.703 191.236 898.576 192.901C899.437 194.559 901.557 195.203 903.283 194.34C905.008 193.476 905.707 191.409 904.837 189.753C903.973 188.086 901.88 187.425 900.128 188.305ZM888.525 205.948C886.799 206.812 886.097 208.87 886.971 210.535C887.832 212.193 889.954 212.846 891.677 211.973C893.403 211.11 894.104 209.052 893.241 207.384C892.37 205.729 890.277 205.067 888.525 205.948ZM869.429 209.373C868.259 209.954 867.572 211.081 867.505 212.236L872.82 215.283C874.414 214.356 874.984 212.424 874.145 210.809C873.301 209.136 871.181 208.492 869.429 209.373ZM680.27 280.163L697.958 267.5C698.27 267.274 698.37 266.808 698.114 266.519C697.858 266.23 697.416 266.133 697.1 266.379L679.412 279.042C679.1 279.268 678.999 279.734 679.255 280.023C679.467 280.304 679.856 280.396 680.177 280.238C680.215 280.188 680.241 280.171 680.27 280.163ZM685.653 287.65L717.09 263.376C717.397 263.132 717.459 262.677 717.203 262.388C716.954 262.087 716.493 262.035 716.189 262.288L684.751 286.561C684.444 286.805 684.382 287.261 684.629 287.552C684.841 287.833 685.241 287.892 685.533 287.742C685.551 287.697 685.597 287.675 685.653 287.65ZM691.474 295.185L737.527 258.216C737.831 257.963 737.895 257.517 737.637 257.219C737.391 256.927 736.92 256.877 736.623 257.118L690.57 294.087C690.256 294.343 690.192 294.79 690.45 295.088C690.689 295.351 691.043 295.394 691.337 295.253C691.41 295.253 691.419 295.21 691.474 295.185ZM697.302 302.101L733.157 269.412C733.444 269.133 733.482 268.704 733.189 268.396C732.905 268.115 732.461 268.087 732.135 268.376L696.295 301.081C696.008 301.36 695.963 301.801 696.265 302.107C696.486 302.345 696.843 302.397 697.135 302.247C697.182 302.194 697.254 302.154 697.302 302.101ZM703.416 308.808L729.698 279.988C729.98 279.691 729.942 279.253 729.64 278.986C729.329 278.723 728.881 278.756 728.599 279.053L702.327 307.871C702.045 308.168 702.073 308.609 702.375 308.875C702.617 309.078 702.938 309.109 703.202 308.977C703.284 308.934 703.349 308.867 703.416 308.808ZM709.69 315.232L725.858 294.659C726.105 294.351 726.034 293.902 725.737 293.654C725.426 293.431 724.957 293.5 724.704 293.789L708.537 314.362C708.291 314.679 708.363 315.128 708.657 315.366C708.882 315.544 709.185 315.55 709.424 315.435C709.549 315.4 709.616 315.342 709.69 315.232ZM714.449 319.848L723.236 308.436C723.472 308.121 723.41 307.67 723.087 307.439C722.767 307.218 722.297 307.287 722.062 307.601L713.275 319.014C713.039 319.328 713.111 319.777 713.424 320.01C713.649 320.188 713.962 320.192 714.198 320.067C714.291 319.991 714.373 319.949 714.449 319.848ZM944.174 151.22L1012.71 174.337C1011.78 166.473 1010.43 158.029 1008.45 149.118C1004.65 132.108 999.502 117.306 994.164 104.919C986.685 112.741 978.515 120.842 969.636 129.048C960.958 137.08 952.414 144.466 944.174 151.22ZM613.298 277.162C623.467 276.67 633.235 275.929 642.553 275.023C638.678 283.07 634.845 291.834 631.225 301.337C625.675 315.87 621.613 329.584 618.591 342.015C610.308 332.782 601.457 321.671 592.812 308.588C585.614 297.71 579.814 287.306 575.074 277.737C587.102 277.961 599.859 277.815 613.298 277.162Z" fill="#F9B53F"/>
<path d="M838.366 217.744C844.013 214.935 849.632 212.023 855.317 208.974C963.347 150.756 1028.17 70.2865 1063.52 13.0386C1063.94 12.3746 1064.82 12.133 1065.53 12.5168C1066.21 12.9179 1066.45 13.7684 1066.04 14.4602C1030.48 72.0328 965.315 152.928 856.7 211.436C851.836 214.071 846.951 216.591 842.122 219.015C838.912 220.636 835.681 222.223 832.481 223.731C725.519 274.953 624.332 282.048 556.267 278.509C555.474 278.458 554.857 277.8 554.906 276.998C554.973 276.222 555.658 275.615 556.49 275.655C625.676 279.304 729.385 271.825 838.366 217.744Z" fill="#F79748"/>
<path d="M339.662 263.433C346.064 257.766 351.618 252.219 356.404 247.055C345.781 243.339 334.683 239.1 323.2 234.28C312.971 229.99 303.287 225.586 294.169 221.169C295.358 227.841 296.373 235.151 297.073 243.12C297.424 247.246 297.718 251.532 297.869 255.954C298.397 270.108 297.675 282.817 296.432 293.686C306.293 288.352 317.597 281.307 329.403 272.02C333.037 269.15 336.471 266.285 339.662 263.433Z" fill="#3BA27A"/>
<path d="M239.644 217.955C243.146 215.902 246.637 213.888 250.148 211.837L255.549 208.696C258.082 207.218 260.598 205.766 263.131 204.287C254.441 199.253 245.42 193.707 236.175 187.637C226.372 181.155 217.226 174.634 208.722 168.236C207.025 175.408 205.419 183.347 204.184 191.987L203.448 197.457C203.306 198.813 203.149 200.185 202.992 201.558C202.149 209.529 201.731 217.071 201.575 224.105C201.548 226.401 201.529 228.596 201.554 230.782C201.579 233.979 201.653 237.076 201.756 240.004C205.655 237.732 209.583 235.469 213.475 233.184C215.129 232.223 216.782 231.262 218.442 230.282C225.497 226.18 232.589 222.058 239.644 217.955Z" fill="#446DB7"/>
<path d="M112.358 74.8973L39.0114 83.6036C45.1517 73.8993 51.5639 62.5326 57.6247 49.5317C63.2021 37.5901 67.4719 26.3133 70.8153 16.1136C75.8413 24.3008 81.3122 32.7521 87.2326 41.3437C95.6503 53.524 104.078 64.6958 112.358 74.8973ZM412.884 263.313C403.29 261.083 394.103 258.709 385.355 256.223C389.611 267.149 393.805 280.559 396.671 296.149C398.742 307.382 399.75 317.713 400.145 326.845C407.848 319.959 416.228 311.705 424.671 301.895C434.296 290.705 441.972 279.871 448.06 270.203C436.892 268.405 425.117 266.149 412.884 263.313Z" fill="#F14947"/>
<path d="M65.0184 31.0881C64.798 30.7325 64.9067 30.2843 65.2623 30.0639L75.4959 23.4399C75.8419 23.2167 76.2929 23.3157 76.5133 23.6713C76.7337 24.0269 76.6251 24.4751 76.2791 24.6983L66.0358 31.3195C65.7946 31.4688 65.5166 31.4927 65.2996 31.3779C65.1732 31.3101 65.0841 31.2218 65.0184 31.0881ZM90.6417 76.3057C90.4033 75.9761 90.4859 75.51 90.8415 75.2896L104.97 65.5061C105.299 65.2677 105.756 65.3475 105.979 65.6934C106.208 66.0202 106.135 66.4891 105.779 66.7095L91.6482 76.5027C91.4262 76.6575 91.1222 76.6634 90.8859 76.543C90.8049 76.4988 90.7129 76.4201 90.6417 76.3057ZM58.4808 48.0484C58.2424 47.7189 58.325 47.2528 58.6517 47.024L80.6021 31.0247C80.9316 30.7864 81.4006 30.8593 81.6293 31.186C81.8581 31.5128 81.7852 31.9817 81.4556 32.2201L59.5136 48.1905C59.2833 48.3741 58.9792 48.3801 58.7361 48.2473C58.6358 48.1975 58.5439 48.1188 58.4808 48.0484ZM49.3118 65.3118C49.083 64.985 49.1656 64.5189 49.5116 64.2957L85.7658 39.1683C86.0829 38.9368 86.5518 39.0097 86.7723 39.3653C87.001 39.6921 86.9185 40.1582 86.5725 40.3814L50.3279 65.5116C50.1059 65.6664 49.8019 65.6723 49.5656 65.5519C49.4845 65.5077 49.3954 65.4194 49.3118 65.3118ZM57.6702 81.666C57.4938 81.3023 57.6217 80.8596 57.9854 80.6832L99.7558 58.5469C100.122 58.3609 100.565 58.4888 100.739 58.8621C100.915 59.2259 100.79 59.6588 100.423 59.8449L58.6529 81.9812C58.4201 82.1016 58.1793 82.105 57.9719 81.993C57.8539 81.8963 57.7358 81.7996 57.6702 81.666ZM38.3995 83.9897C38.1763 83.6437 38.2877 83.1859 38.6337 82.9627L92.7471 49.0674C93.1027 48.8469 93.5509 48.9556 93.7713 49.3112C93.9849 49.6544 93.8831 50.115 93.5275 50.3354L39.4141 84.2308C39.1757 84.3704 38.9061 84.3655 38.6987 84.2534C38.5543 84.2117 38.4624 84.133 38.3995 83.9897ZM201.593 224.152C201.737 224.194 201.89 224.28 202.055 224.359C203.791 225.277 204.416 227.407 203.5 229.134C203.067 229.947 202.358 230.524 201.565 230.816L201.593 224.152ZM214.876 226.458C216.838 226.378 218.45 227.908 218.535 229.851C218.538 229.987 218.538 230.164 218.523 230.327C216.872 231.278 215.228 232.241 213.556 233.228C212.384 232.702 211.556 231.525 211.517 230.147C211.405 228.186 212.911 226.547 214.876 226.458ZM203.474 197.475C203.703 197.728 204.02 197.966 204.363 198.149C206.1 199.067 208.205 198.383 209.121 196.656C210.025 194.937 209.38 192.801 207.663 191.888C206.533 191.29 205.244 191.386 204.213 191.996L203.474 197.475ZM217.312 210.523C219.022 211.423 219.674 213.572 218.76 215.289C217.854 217.018 215.713 217.682 214.005 216.771C212.295 215.87 211.641 213.732 212.557 212.005C213.461 210.285 215.602 209.622 217.312 210.523ZM223.49 183.804C225.197 184.715 225.851 186.853 224.935 188.58C224.032 190.3 221.89 190.963 220.18 190.062C218.47 189.162 217.819 187.013 218.732 185.296C219.638 183.567 221.754 182.885 223.49 183.804ZM234.703 202.151C236.413 203.052 237.067 205.19 236.151 206.917C235.247 208.637 233.103 209.31 231.396 208.399C229.686 207.499 229.032 205.36 229.938 203.631C230.851 201.914 232.966 201.232 234.703 202.151ZM253.772 205.753C254.932 206.359 255.594 207.531 255.633 208.731L250.229 211.881C248.653 210.915 248.128 208.908 249.008 207.233C249.895 205.498 252.036 204.835 253.772 205.753ZM441.788 279.713L424.352 266.522C424.045 266.287 423.956 265.803 424.219 265.504C424.483 265.205 424.929 265.104 425.241 265.361L442.676 278.552C442.984 278.787 443.073 279.271 442.809 279.57C442.59 279.861 442.197 279.957 441.88 279.792C441.843 279.74 441.817 279.722 441.788 279.713ZM436.209 287.474L405.263 262.195C404.961 261.941 404.91 261.467 405.174 261.168C405.43 260.857 405.894 260.803 406.193 261.067L437.14 286.346C437.442 286.6 437.493 287.073 437.239 287.375C437.019 287.666 436.616 287.727 436.327 287.57C436.31 287.524 436.264 287.5 436.209 287.474ZM430.189 295.284L384.89 256.787C384.591 256.524 384.537 256.06 384.803 255.751C385.057 255.449 385.531 255.398 385.823 255.65L431.122 294.146C431.431 294.413 431.485 294.877 431.218 295.185C430.973 295.458 430.616 295.501 430.325 295.355C430.252 295.354 430.244 295.31 430.189 295.284ZM424.177 302.45L389.003 268.422C388.722 268.133 388.694 267.687 388.995 267.367C389.288 267.076 389.733 267.049 390.053 267.35L425.212 301.394C425.494 301.684 425.528 302.142 425.217 302.459C424.99 302.706 424.63 302.758 424.342 302.602C424.295 302.547 424.224 302.505 424.177 302.45ZM417.884 309.4L392.218 279.412C391.943 279.103 391.991 278.648 392.3 278.372C392.618 278.099 393.067 278.135 393.342 278.444L418.999 308.429C419.274 308.738 419.236 309.196 418.927 309.472C418.679 309.681 418.357 309.714 418.094 309.575C418.013 309.531 417.95 309.461 417.884 309.4ZM411.437 316.054L395.717 294.654C395.475 294.334 395.558 293.868 395.861 293.611C396.178 293.38 396.647 293.453 396.894 293.753L412.614 315.154C412.853 315.484 412.77 315.95 412.47 316.196C412.239 316.38 411.935 316.386 411.699 316.266C411.574 316.23 411.508 316.169 411.437 316.054ZM406.552 320.836L398.014 308.965C397.785 308.638 397.858 308.169 398.188 307.931C398.514 307.702 398.983 307.775 399.212 308.102L407.75 319.973C407.979 320.299 407.897 320.765 407.577 321.007C407.346 321.19 407.033 321.194 406.799 321.063C406.707 320.985 406.626 320.941 406.552 320.836ZM180.205 145.191L110.91 169.028C112.028 160.865 113.591 152.1 115.794 142.853C120.009 125.201 125.53 109.844 131.182 96.9965C138.494 105.135 146.494 113.567 155.202 122.109C163.712 130.469 172.104 138.159 180.205 145.191ZM509.031 276.76C498.844 276.225 489.065 275.432 479.741 274.468C483.433 282.833 487.067 291.942 490.469 301.818C495.686 316.92 499.429 331.17 502.161 344.084C510.691 334.518 519.836 323.002 528.822 309.439C536.303 298.162 542.371 287.374 547.354 277.45C535.286 277.653 522.494 277.47 509.031 276.76Z" fill="#F9B53F"/>
<path d="M284.726 214.52C279.13 211.59 273.564 208.553 267.936 205.373C160.987 144.663 97.9133 60.9545 63.8305 1.42823C63.4254 0.737746 62.5497 0.484729 61.8304 0.881552C61.1371 1.29634 60.8717 2.17879 61.2685 2.89814C95.5456 62.7621 158.961 146.913 266.489 207.927C271.304 210.673 276.143 213.302 280.928 215.831C284.109 217.522 287.311 219.177 290.484 220.751C396.53 274.194 497.846 281.806 566.199 278.297C566.995 278.246 567.63 277.564 567.6 276.732C567.551 275.926 566.879 275.293 566.044 275.334C496.564 278.954 392.728 270.937 284.726 214.52Z" fill="#F79748"/>
</svg>
