<svg width="1200" height="630" viewBox="0 0 1200 630" fill="none" xmlns="http://www.w3.org/2000/svg">
<g clip-path="url(#clip0_6_181)">
<rect width="1200" height="630" fill="#F7E4DF"/>
<path d="M1140.91 550.883C1134.89 554.436 1128.64 559.112 1122.69 565.203C1110.55 577.709 1104.89 591.009 1102.23 598.809C1105.62 597.919 1110.29 596.505 1115.71 594.236C1124.01 590.714 1134.04 585.149 1143.71 576.295C1158.44 562.865 1165.58 548.185 1168.84 540.052C1163.34 541.206 1152.62 543.969 1140.91 550.883Z" fill="#F9B53F"/>
<path d="M1052.39 597.494C1051.9 595.781 1052.89 593.972 1054.6 593.443L1067.86 589.56C1069.56 589.066 1071.37 590.054 1071.9 591.764C1072.39 593.477 1071.41 595.286 1069.69 595.815L1056.44 599.698C1056.15 599.797 1055.82 599.832 1055.52 599.832C1054.1 599.832 1052.82 598.908 1052.39 597.494ZM1078.58 518.132L1072.36 501.87C1071.74 500.191 1072.56 498.313 1074.24 497.688C1075.91 497.033 1077.79 497.888 1078.41 499.566L1084.63 515.829C1085.26 517.504 1084.43 519.382 1082.76 520.007C1082.36 520.137 1081.97 520.236 1081.6 520.236C1080.32 520.236 1079.07 519.447 1078.58 518.132ZM1151.11 514.74C1149.6 513.786 1149.17 511.743 1150.12 510.264L1157.13 499.367C1158.08 497.853 1160.12 497.428 1161.6 498.382C1163.12 499.336 1163.54 501.375 1162.59 502.859L1155.58 513.751C1154.96 514.706 1153.9 515.235 1152.85 515.235C1152.26 515.265 1151.67 515.101 1151.11 514.74ZM1131.47 585.808C1132.1 585.808 1132.72 585.643 1133.28 585.248C1134.76 584.259 1135.15 582.22 1134.17 580.737C1131.7 577.05 1126.44 570.534 1119.17 568.426C1110.55 565.958 1102.49 568.296 1094.7 570.534C1092.59 571.128 1090.62 571.718 1088.61 572.178C1084.24 573.232 1079.63 574.056 1075.85 572.838C1071.74 571.523 1068.22 568.031 1065.32 564.773C1064.14 563.424 1062.06 563.325 1060.75 564.509C1059.4 565.697 1059.3 567.771 1060.48 569.085C1063.97 573.002 1068.28 577.249 1073.87 579.028C1079.17 580.706 1084.83 579.752 1090.12 578.468C1092.26 577.939 1094.4 577.349 1096.47 576.724C1103.71 574.647 1110.52 572.673 1117.36 574.616C1121.24 575.735 1125.39 579.257 1128.77 584.294C1129.4 585.279 1130.42 585.808 1131.47 585.808Z" fill="#3BA27A"/>
<path d="M1084.4 614.182C1082.66 613.787 1081.54 612.043 1081.93 610.299L1083.74 602.3C1084.14 600.553 1085.88 599.468 1087.62 599.832C1089.37 600.227 1090.48 601.971 1090.09 603.715L1088.28 611.714C1087.95 613.228 1086.61 614.247 1085.12 614.247C1084.89 614.282 1084.63 614.247 1084.4 614.182ZM1049.53 556.644C1048.38 555.261 1048.55 553.222 1049.93 552.068C1052.13 550.194 1055.85 547.821 1061.01 547.032C1066.9 546.112 1071.7 547.79 1074.04 548.875C1075.65 549.634 1076.38 551.573 1075.62 553.187C1074.86 554.801 1072.92 555.525 1071.31 554.766C1069.63 553.977 1066.21 552.792 1062 553.451C1058.35 554.011 1055.68 555.72 1054.1 557.073C1053.51 557.599 1052.76 557.829 1052.03 557.829C1051.08 557.829 1050.16 557.434 1049.53 556.644ZM1143.71 579.553C1144.69 579.553 1145.65 579.127 1146.27 578.303C1147.36 576.889 1147.09 574.846 1145.68 573.761C1139.23 568.756 1135.16 563.225 1133.64 557.303C1131.83 550.259 1133.78 544.004 1135.84 537.388C1138.08 530.179 1140.65 522.015 1138.08 512.372C1136.53 506.477 1133.38 501.015 1128.74 496.144C1127.49 494.86 1125.45 494.795 1124.17 496.044C1122.89 497.297 1122.82 499.336 1124.07 500.62C1127.95 504.702 1130.58 509.21 1131.83 514.016C1133.91 521.85 1131.83 528.466 1129.66 535.445C1127.42 542.655 1125.09 550.094 1127.36 558.913C1129.27 566.287 1134.1 573.003 1141.73 578.894C1142.33 579.357 1143.02 579.553 1143.71 579.553Z" fill="#446DB7"/>
<path d="M1165.68 530.639C1165.28 528.895 1166.37 527.151 1168.11 526.756L1178.25 524.453C1179.99 524.058 1181.73 525.142 1182.13 526.886C1182.52 528.63 1181.44 530.378 1179.69 530.773L1169.56 533.076C1169.33 533.141 1169.07 533.141 1168.84 533.141C1167.36 533.141 1166.01 532.122 1165.68 530.639ZM1143.71 576.329C1147.95 572.477 1151.54 568.526 1154.59 564.674C1157.16 561.416 1159.37 558.223 1161.21 555.23C1164.86 549.27 1167.29 543.938 1168.84 540.121L1185.58 582.68L1189.79 593.377L1214.99 657.565L1204.17 651.939L1194.92 647.132L1148.31 622.84L1138.11 617.539L1102.23 598.843C1110.85 596.57 1127.69 590.909 1143.71 576.329ZM1108.08 520.236C1109.1 520.236 1110.12 519.746 1110.75 518.822C1111.77 517.343 1111.41 515.334 1109.92 514.315C1108.54 513.36 1105.22 510.628 1104.24 505.821C1103.48 502.134 1104.5 499.072 1105.19 497.558C1105.91 495.914 1105.19 494.005 1103.55 493.281C1101.9 492.556 1099.99 493.281 1099.27 494.925C1098.28 497.132 1096.77 501.674 1097.88 507.136C1099.33 514.246 1104.2 518.263 1106.24 519.677C1106.8 520.041 1107.46 520.236 1108.08 520.236Z" fill="#F14947"/>
<path d="M1143.71 613.392C1146.93 613.392 1149.56 615.991 1149.56 619.253C1149.56 620.602 1149.1 621.851 1148.34 622.84L1138.15 617.539C1138.87 615.136 1141.11 613.392 1143.71 613.392ZM1185.58 582.68L1189.79 593.378C1188.9 593.937 1187.88 594.236 1186.76 594.236C1183.54 594.236 1180.91 591.634 1180.91 588.376C1180.91 585.578 1182.92 583.205 1185.58 582.68ZM1126.4 594.926C1129.63 594.926 1132.26 597.559 1132.26 600.786C1132.26 604.01 1129.66 606.643 1126.4 606.643C1123.18 606.643 1120.55 604.044 1120.55 600.786C1120.55 597.559 1123.15 594.926 1126.4 594.926ZM1173.9 607.566C1177.13 607.566 1179.76 610.165 1179.76 613.423C1179.76 616.65 1177.16 619.283 1173.9 619.283C1170.65 619.283 1168.05 616.685 1168.05 613.423C1168.05 610.165 1170.68 607.566 1173.9 607.566ZM1200.78 641.337C1204 641.337 1206.63 643.94 1206.63 647.197C1206.63 649.171 1205.68 650.885 1204.2 651.969L1194.92 647.132C1194.96 643.905 1197.55 641.337 1200.78 641.337ZM1161.21 555.195C1163.11 556.15 1164.43 558.124 1164.43 560.427C1164.43 563.654 1161.83 566.287 1158.58 566.287C1157.03 566.287 1155.58 565.663 1154.56 564.674C1157.16 561.416 1159.37 558.223 1161.21 555.195ZM1064.57 529.259C1068.94 527.546 1077.85 525.142 1088.21 527.975C1101.54 531.628 1108.51 541.47 1110.88 545.552C1111.8 547.097 1111.27 549.074 1109.73 549.994C1109.2 550.289 1108.64 550.454 1108.08 550.454C1106.96 550.454 1105.88 549.864 1105.29 548.841C1103.32 545.452 1097.52 537.289 1086.51 534.261C1077.95 531.892 1070.55 533.931 1066.94 535.315C1065.26 535.974 1063.38 535.115 1062.72 533.471C1062.06 531.823 1062.89 529.914 1064.57 529.259Z" fill="#F9B53F"/>
<path d="M1084.76 611.779C1084.53 611.714 1084.4 611.514 1084.47 611.284L1086.47 602.726C1086.54 602.496 1086.74 602.365 1086.97 602.431C1087.2 602.496 1087.33 602.695 1087.26 602.925L1085.26 611.484C1085.22 611.679 1085.06 611.813 1084.86 611.813C1084.83 611.779 1084.8 611.779 1084.76 611.779ZM1152.56 512.567C1152.36 512.437 1152.29 512.207 1152.43 512.007L1159.53 500.72C1159.66 500.521 1159.89 500.49 1160.09 500.586C1160.29 500.72 1160.35 500.95 1160.22 501.145L1153.12 512.437C1153.05 512.567 1152.92 512.632 1152.79 512.632C1152.69 512.602 1152.62 512.602 1152.56 512.567ZM1108.51 546.966C1106.44 543.574 1100.39 535.315 1089.07 531.693C1078.12 528.14 1068.58 531.068 1064.99 532.452C1064.8 532.517 1064.57 532.417 1064.47 532.218C1064.37 532.022 1064.5 531.758 1064.7 531.693C1069.23 529.914 1078.51 527.415 1089.3 530.903C1100.85 534.621 1107.06 543.084 1109.2 546.537C1109.33 546.736 1109.27 546.966 1109.07 547.097C1109 547.131 1108.94 547.162 1108.87 547.162C1108.74 547.162 1108.61 547.097 1108.51 546.966ZM1141.01 578.698C1140.88 578.533 1140.88 578.269 1141.04 578.138C1147.16 572.838 1152.66 566.816 1157.32 560.232C1160.78 555.395 1163.8 550.194 1166.34 544.793C1166.44 544.598 1166.67 544.498 1166.86 544.598C1167.06 544.693 1167.16 544.923 1167.06 545.123C1164.49 550.554 1161.47 555.789 1157.98 560.691C1153.28 567.341 1147.75 573.432 1141.57 578.732C1141.5 578.798 1141.41 578.828 1141.31 578.828C1141.21 578.828 1141.08 578.798 1141.01 578.698ZM1130.85 604.604C1130.65 604.47 1130.62 604.209 1130.75 604.044C1132.49 601.606 1132 598.184 1129.63 596.44C1128.48 595.585 1126.96 595.221 1125.48 595.485C1123.97 595.75 1122.66 596.605 1121.8 597.889C1121.67 598.084 1121.44 598.119 1121.24 597.988C1121.04 597.854 1121.01 597.624 1121.14 597.429C1122.13 595.945 1123.61 594.991 1125.35 594.696C1127.03 594.397 1128.77 594.796 1130.12 595.781C1132.82 597.789 1133.41 601.706 1131.41 604.504C1131.34 604.604 1131.21 604.669 1131.08 604.669C1131.01 604.669 1130.91 604.634 1130.85 604.604ZM1206.14 649.501C1205.94 649.436 1205.81 649.206 1205.88 648.976C1206.66 646.538 1205.74 643.871 1203.64 642.556C1201.73 641.372 1199.23 641.502 1197.42 642.886C1197.26 643.016 1196.99 642.985 1196.86 642.82C1196.73 642.656 1196.76 642.391 1196.93 642.261C1199.03 640.678 1201.9 640.513 1204.07 641.897C1206.5 643.411 1207.55 646.439 1206.63 649.271C1206.57 649.436 1206.4 649.566 1206.24 649.566C1206.24 649.501 1206.21 649.501 1206.14 649.501ZM1173.9 619.647C1174.13 619.647 1174.3 619.448 1174.3 619.253C1174.3 619.019 1174.1 618.854 1173.9 618.854C1170.91 618.854 1168.48 616.42 1168.48 613.423C1168.48 610.43 1170.91 607.992 1173.9 607.992C1174.13 607.992 1174.3 607.796 1174.3 607.597C1174.3 607.402 1174.1 607.202 1173.9 607.202C1170.45 607.202 1167.65 610 1167.65 613.457C1167.65 616.849 1170.45 619.647 1173.9 619.647Z" fill="#3A5471"/>
<path d="M55.5388 553.152C62.0045 556.971 68.716 561.99 75.108 568.525C88.1418 581.957 94.2141 596.236 97.0782 604.615C93.4397 603.66 88.4245 602.14 82.5939 599.702C73.6944 595.921 62.9223 589.946 52.5395 580.436C36.7153 566.018 29.0491 550.255 25.554 541.523C31.4502 542.761 42.9639 545.731 55.5388 553.152Z" fill="#F9B53F"/>
<path d="M150.586 603.202C151.115 601.362 150.058 599.42 148.222 598.854L133.988 594.683C132.148 594.15 130.206 595.212 129.64 597.051C129.112 598.887 130.173 600.833 132.009 601.399L146.243 605.57C146.558 605.672 146.915 605.709 147.23 605.709C148.75 605.709 150.127 604.722 150.586 603.202ZM122.474 517.984L129.149 500.525C129.821 498.722 128.935 496.706 127.133 496.034C125.334 495.329 123.318 496.247 122.65 498.05L115.971 515.509C115.303 517.312 116.184 519.328 117.987 520C118.409 520.139 118.835 520.246 119.221 520.246C120.601 520.246 121.941 519.398 122.474 517.984ZM44.5905 514.345C46.2172 513.317 46.6761 511.125 45.6517 509.535L38.1289 497.837C37.1046 496.21 34.9124 495.751 33.3227 496.78C31.7001 497.804 31.2412 499.992 32.2655 501.582L39.7884 513.284C40.4562 514.309 41.5871 514.874 42.718 514.874C43.3531 514.907 43.9882 514.731 44.5905 514.345ZM65.6757 590.651C65.0037 590.651 64.3359 590.475 63.7336 590.053C62.1438 588.992 61.7217 586.8 62.7789 585.21C65.4299 581.252 71.0802 574.253 78.8857 571.992C88.1418 569.341 96.7955 571.848 105.166 574.253C107.424 574.889 109.547 575.524 111.698 576.019C116.397 577.15 121.343 578.035 125.404 576.728C129.821 575.315 133.598 571.566 136.704 568.066C137.978 566.62 140.203 566.514 141.617 567.784C143.063 569.058 143.17 571.283 141.9 572.696C138.155 576.905 133.529 581.465 127.522 583.37C121.835 585.173 115.762 584.149 110.075 582.772C107.781 582.207 105.482 581.567 103.257 580.895C95.4884 578.67 88.1745 576.548 80.8279 578.634C76.6609 579.838 72.2111 583.62 68.5726 589.025C67.9006 590.086 66.8066 590.651 65.6757 590.651Z" fill="#F14947"/>
<path d="M116.221 621.12C118.094 620.698 119.294 618.821 118.868 616.948L116.926 608.36C116.504 606.488 114.631 605.32 112.759 605.709C110.886 606.135 109.686 608.008 110.108 609.88L112.054 618.469C112.406 620.095 113.853 621.189 115.443 621.189C115.688 621.226 115.971 621.189 116.221 621.12ZM153.659 559.339C154.896 557.852 154.72 555.664 153.237 554.426C150.869 552.41 146.878 549.866 141.334 549.018C135.012 548.026 129.853 549.829 127.346 550.997C125.616 551.808 124.838 553.894 125.649 555.627C126.465 557.36 128.546 558.134 130.279 557.323C132.078 556.475 135.753 555.201 140.273 555.909C144.194 556.512 147.054 558.347 148.75 559.798C149.385 560.363 150.197 560.609 150.975 560.609C152 560.609 152.987 560.187 153.659 559.339ZM52.5394 583.936C51.4781 583.936 50.4538 583.477 49.7818 582.596C48.6181 581.076 48.9009 578.884 50.4169 577.716C57.3415 572.344 61.7216 566.407 63.3442 560.044C65.2864 552.48 63.2049 545.764 60.98 538.659C58.5789 530.919 55.8214 522.155 58.5789 511.801C60.2384 505.47 63.6269 499.607 68.6094 494.375C69.9492 492.994 72.1413 492.924 73.518 494.268C74.8948 495.612 74.9644 497.804 73.6246 499.181C69.4575 503.565 66.6303 508.408 65.2864 513.567C63.0615 521.979 65.2864 529.084 67.6178 536.574C70.023 544.318 72.5306 552.304 70.0926 561.777C68.0439 569.693 62.8525 576.905 54.6577 583.231C54.0226 583.727 53.281 583.936 52.5394 583.936Z" fill="#446DB7"/>
<path d="M28.9425 531.415C29.3686 529.543 28.2009 527.67 26.3284 527.244L15.4498 524.769C13.5772 524.347 11.7088 525.511 11.2827 527.387C10.8607 529.26 12.0243 531.132 13.8968 531.558L24.7754 534.029C25.0213 534.103 25.304 534.103 25.5539 534.103C27.1437 534.103 28.5901 533.005 28.9425 531.415ZM52.5394 580.473C47.9831 576.339 44.1316 572.098 40.8454 567.96C38.092 564.461 35.7237 561.035 33.7487 557.819C29.8275 551.419 27.2134 545.694 25.5539 541.593L7.57456 587.295L3.05513 598.78L-24 667.703L-12.3839 661.659L-2.45588 656.5L47.5939 630.416L58.5421 624.725L97.0781 604.648C87.8221 602.21 69.7403 596.129 52.5394 580.473ZM90.7886 520.246C89.6946 520.246 88.6006 519.717 87.9287 518.725C86.8346 517.136 87.2239 514.98 88.8096 513.886C90.297 512.862 93.8617 509.928 94.9229 504.766C95.7342 500.807 94.6402 497.521 93.8986 495.895C93.1201 494.129 93.8986 492.076 95.6645 491.302C97.4305 490.523 99.4792 491.302 100.254 493.067C101.315 495.436 102.942 500.312 101.737 506.179C100.184 513.813 94.9557 518.127 92.7677 519.647C92.1654 520.032 91.4606 520.246 90.7886 520.246Z" fill="#3BA27A"/>
<path d="M52.5395 620.271C49.0771 620.271 46.2499 623.062 46.2499 626.561C46.2499 628.011 46.7457 629.355 47.557 630.416L58.5053 624.725C57.7309 622.144 55.3298 620.271 52.5395 620.271ZM7.57459 587.295L3.05516 598.78C4.00985 599.383 5.10386 599.702 6.3044 599.702C9.7667 599.702 12.5898 596.908 12.5898 593.409C12.5898 590.405 10.4346 587.861 7.57459 587.295ZM71.1171 600.444C67.6548 600.444 64.8276 603.271 64.8276 606.733C64.8276 610.2 67.6179 613.027 71.1171 613.027C74.5794 613.027 77.4025 610.233 77.4025 606.733C77.4025 603.271 74.6121 600.444 71.1171 600.444ZM20.1126 614.015C16.6503 614.015 13.8272 616.809 13.8272 620.308C13.8272 623.77 16.6175 626.598 20.1126 626.598C23.6118 626.598 26.4021 623.807 26.4021 620.308C26.4021 616.809 23.5749 614.015 20.1126 614.015ZM-8.74535 650.281C-12.2036 650.281 -15.0308 653.071 -15.0308 656.57C-15.0308 658.693 -14.0064 660.528 -12.4166 661.696L-2.45584 656.5C-2.49272 653.034 -5.28305 650.281 -8.74535 650.281ZM33.7488 557.782C31.7001 558.806 30.2865 560.929 30.2865 563.403C30.2865 566.866 33.0768 569.693 36.5719 569.693C38.2313 569.693 39.7883 569.021 40.8824 567.96C38.092 564.461 35.7237 561.035 33.7488 557.782ZM137.52 529.932C132.82 528.092 123.248 525.511 112.124 528.551C97.8198 532.476 90.3298 543.043 87.7853 547.428C86.7978 549.087 87.3632 551.21 89.0227 552.197C89.5881 552.517 90.1905 552.693 90.7887 552.693C91.9892 552.693 93.157 552.058 93.7921 550.96C95.9104 547.321 102.126 538.557 113.959 535.304C123.142 532.759 131.091 534.951 134.975 536.434C136.778 537.143 138.79 536.221 139.494 534.455C140.203 532.689 139.318 530.637 137.52 529.932Z" fill="#F9B53F"/>
<path d="M115.832 618.538C116.078 618.468 116.221 618.255 116.147 618.01L113.996 608.819C113.923 608.573 113.714 608.43 113.464 608.504C113.218 608.573 113.078 608.786 113.148 609.032L115.303 618.223C115.336 618.432 115.512 618.575 115.725 618.575C115.762 618.538 115.795 618.538 115.832 618.538ZM43.0376 512.01C43.2465 511.871 43.3203 511.625 43.1769 511.412L35.5475 499.287C35.4082 499.074 35.1583 499.042 34.9493 499.148C34.7362 499.287 34.6666 499.533 34.8059 499.746L42.4352 511.871C42.5049 512.01 42.6483 512.084 42.7876 512.084C42.8941 512.047 42.9638 512.047 43.0376 512.01ZM90.3297 548.948C92.5546 545.305 99.0531 536.434 111.206 532.546C122.966 528.731 133.209 531.874 137.061 533.361C137.27 533.431 137.519 533.325 137.626 533.111C137.728 532.898 137.589 532.616 137.376 532.546C132.504 530.637 122.543 527.953 110.956 531.698C98.5614 535.693 91.8826 544.777 89.5881 548.485C89.4488 548.698 89.5184 548.948 89.7315 549.087C89.8012 549.124 89.8708 549.157 89.9405 549.157C90.0839 549.157 90.2232 549.087 90.3297 548.948ZM55.4322 583.018C55.5756 582.842 55.5756 582.559 55.3994 582.42C48.8272 576.728 42.931 570.258 37.9158 563.19C34.2077 557.995 30.9584 552.41 28.2377 546.612C28.1312 546.403 27.8854 546.297 27.6723 546.403C27.4592 546.506 27.3527 546.756 27.4592 546.969C30.2168 552.799 33.466 558.417 37.207 563.686C42.259 570.824 48.1921 577.363 54.834 583.055C54.9036 583.124 55.0101 583.161 55.1167 583.161C55.2232 583.161 55.3625 583.124 55.4322 583.018ZM66.3477 610.835C66.5607 610.692 66.5935 610.409 66.4542 610.233C64.5817 607.619 65.1102 603.943 67.6547 602.071C68.8921 601.149 70.5147 600.759 72.1045 601.042C73.7312 601.325 75.1407 602.247 76.0626 603.624C76.2019 603.837 76.4477 603.874 76.6608 603.73C76.8739 603.591 76.9067 603.341 76.7673 603.128C75.7061 601.538 74.1163 600.514 72.2479 600.194C70.4451 599.879 68.5725 600.301 67.1262 601.362C64.2293 603.517 63.5942 607.725 65.7453 610.728C65.8191 610.835 65.9584 610.905 66.1018 610.905C66.1715 610.905 66.278 610.868 66.3477 610.835ZM-14.5022 659.045C-14.2892 658.975 -14.1458 658.725 -14.2195 658.48C-15.0636 655.861 -14.0761 653.001 -11.8143 651.588C-9.76564 650.313 -7.08184 650.457 -5.13967 651.94C-4.96348 652.079 -4.68076 652.047 -4.53735 651.87C-4.39804 651.694 -4.43492 651.412 -4.61111 651.268C-6.86877 649.572 -9.94182 649.396 -12.2732 650.879C-14.8874 652.506 -16.0183 655.759 -15.0308 658.795C-14.957 658.975 -14.7809 659.115 -14.6047 659.115C-14.6047 659.045 -14.5719 659.045 -14.5022 659.045ZM20.1126 626.987C19.8668 626.987 19.6906 626.774 19.6906 626.561C19.6906 626.315 19.9036 626.139 20.1126 626.139C23.3291 626.139 25.9432 623.525 25.9432 620.308C25.9432 617.092 23.3291 614.473 20.1126 614.473C19.8668 614.473 19.6906 614.265 19.6906 614.051C19.6906 613.838 19.9036 613.625 20.1126 613.625C23.8248 613.625 26.8241 616.633 26.8241 620.341C26.8241 623.984 23.8248 626.987 20.1126 626.987Z" fill="#3A5471"/>
<path d="M973.812 72.4775C970.198 64.729 967.314 57.4284 964.981 50.7847C976.206 51.609 988.074 52.1428 1000.53 52.2975C1011.62 52.438 1022.25 52.2572 1032.38 51.8383C1028.63 57.484 1024.78 63.784 1020.97 70.8146C1019 74.4589 1017.02 78.2733 1015.12 82.2694C1009 95.0411 1004.6 106.985 1001.41 117.45C994.49 108.628 986.929 97.6627 979.8 84.441C977.611 80.3608 975.603 76.3647 973.812 72.4775Z" fill="#3BA27A"/>
<path d="M1083.67 70.6154C1081.27 67.3369 1078.88 64.0982 1076.47 60.8184L1072.77 55.7854C1071.03 53.4202 1069.31 51.0862 1067.57 48.7211C1077.55 47.5661 1088.03 46.0729 1098.93 44.1888C1110.5 42.1497 1121.49 39.8125 1131.84 37.3323C1130.54 44.587 1128.85 52.5085 1126.54 60.9255L1125.03 66.2352C1124.62 67.5354 1124.22 68.8568 1123.82 70.1782C1121.42 77.8259 1118.79 84.9099 1116.13 91.4235C1115.24 93.5405 1114.39 95.5606 1113.49 97.5558C1112.2 100.479 1110.89 103.29 1109.63 105.934C1106.96 102.297 1104.26 98.6555 1101.6 95.0094C1100.47 93.4692 1099.33 91.929 1098.2 90.3689C1093.37 83.7956 1088.5 77.1887 1083.67 70.6154Z" fill="#446DB7"/>
<path d="M1257.41 -9.88412L1321.22 27.3247C1319.45 15.9775 1318.1 2.99708 1317.72 -11.3421C1317.36 -24.5171 1317.94 -36.5615 1318.94 -47.2487C1311.06 -41.7419 1302.68 -36.1701 1293.83 -30.6487C1281.25 -22.8308 1269.07 -15.9417 1257.41 -9.88412ZM906.701 43.1935C916.389 44.9705 925.761 46.4542 934.775 47.6593C926.519 55.9846 917.329 66.613 908.488 79.771C902.113 89.2483 897.073 98.3224 893.072 106.541C888.75 97.1561 884.353 86.2465 880.517 73.8844C876.148 59.7871 873.424 46.7911 871.692 35.4987C882.651 38.2984 894.35 40.921 906.701 43.1935Z" fill="#F14947"/>
<path d="M1318.29 -31.2044C1318.63 -31.4428 1318.71 -31.8971 1318.47 -32.241L1311.72 -42.3939C1311.5 -42.7365 1311.04 -42.8253 1310.7 -42.587C1310.36 -42.3486 1310.28 -41.8943 1310.51 -41.5517L1317.26 -31.3975C1317.42 -31.1645 1317.67 -31.0318 1317.91 -31.0507C1318.06 -31.0625 1318.17 -31.108 1318.29 -31.2044ZM1276.77 0.0601578C1277.12 -0.147103 1277.23 -0.607545 1276.99 -0.951411L1267.93 -15.5539C1267.72 -15.9039 1267.27 -16.0126 1266.93 -15.7842C1266.59 -15.5757 1266.47 -15.1165 1266.71 -14.7726L1275.77 -0.16016C1275.91 0.0702555 1276.19 0.196877 1276.45 0.180582C1276.54 0.172269 1276.66 0.13672 1276.77 0.0601578ZM1317.53 -13.0437C1317.88 -13.2509 1317.99 -13.7114 1317.78 -14.0514L1304.02 -37.4715C1303.81 -37.8214 1303.35 -37.9414 1303.01 -37.7328C1302.67 -37.5243 1302.55 -37.0651 1302.76 -36.7152L1316.52 -13.3249C1316.66 -13.0646 1316.94 -12.938 1317.21 -12.963C1317.32 -12.9687 1317.44 -13.0043 1317.53 -13.0437ZM1319.06 6.44347C1319.4 6.23493 1319.51 5.77449 1319.28 5.43191L1296.04 -32.0595C1295.84 -32.3983 1295.38 -32.5182 1295.04 -32.2798C1294.7 -32.0713 1294.59 -31.6109 1294.82 -31.2683L1318.05 6.22187C1318.19 6.45229 1318.46 6.57891 1318.73 6.56262C1318.82 6.5543 1318.94 6.50882 1319.06 6.44347ZM1304.88 18.1133C1305.18 17.85 1305.24 17.3931 1304.98 17.0864L1275.49 -19.8595C1275.22 -20.1762 1274.77 -20.2352 1274.46 -19.9619C1274.15 -19.6986 1274.09 -19.2516 1274.36 -18.935L1303.85 18.0109C1304.01 18.2141 1304.23 18.3132 1304.47 18.293C1304.62 18.2514 1304.76 18.2098 1304.88 18.1133ZM1321.62 27.9226C1321.97 27.6942 1322.05 27.2299 1321.82 26.8873L1285.69 -25.7617C1285.45 -26.1055 1285 -26.1844 1284.65 -25.9461C1284.32 -25.7164 1284.23 -25.2534 1284.47 -24.9095L1320.6 27.7395C1320.76 27.9625 1321.01 28.0654 1321.25 28.0453C1321.39 28.0645 1321.51 28.029 1321.62 27.9226ZM1116.1 91.4592C1115.95 91.4399 1115.78 91.4578 1115.59 91.4645C1113.64 91.6154 1112.21 93.3202 1112.37 95.2688C1112.44 96.1872 1112.86 96.9989 1113.47 97.5828L1116.1 91.4592ZM1103 88.2816C1101.23 87.427 1099.14 88.1874 1098.29 89.9355C1098.23 90.0595 1098.16 90.2219 1098.11 90.377C1099.25 91.9073 1100.37 93.4462 1101.51 95.0175C1102.8 95.0017 1104.02 94.2515 1104.61 93.0042C1105.49 91.2499 1104.76 89.1462 1103 88.2816ZM1125 66.241C1124.69 66.3826 1124.31 66.4742 1123.92 66.5049C1121.96 66.6558 1120.3 65.1892 1120.15 63.2406C1120.01 61.3032 1121.45 59.601 1123.39 59.4476C1124.66 59.3497 1125.81 59.952 1126.51 60.9215L1125 66.241ZM1107.11 72.6952C1105.18 72.84 1103.73 74.5509 1103.88 76.4895C1104.03 78.4368 1105.73 79.8986 1107.66 79.7439C1109.58 79.5991 1111.03 77.8981 1110.88 75.9496C1110.74 74.0122 1109.04 72.5504 1107.11 72.6952ZM1112.09 45.7278C1110.16 45.8825 1108.71 47.5834 1108.86 49.532C1109.01 51.4694 1110.71 52.9312 1112.63 52.7864C1114.56 52.6416 1116.01 50.9307 1115.86 48.9921C1115.72 47.0448 1114.05 45.5769 1112.09 45.7278ZM1094.5 58.0879C1092.57 58.2327 1091.12 59.9336 1091.27 61.8822C1091.41 63.8196 1093.11 65.2913 1095.04 65.1366C1096.97 64.9917 1098.42 63.2908 1098.28 61.3435C1098.12 59.4049 1096.46 57.937 1094.5 58.0879ZM1075.57 53.7942C1074.27 53.8881 1073.19 54.6986 1072.68 55.7835L1076.38 60.8265C1078.21 60.5683 1079.49 58.9362 1079.35 57.0498C1079.23 55.1051 1077.53 53.6433 1075.57 53.7942ZM873.655 46.72L894.903 41.568C895.279 41.4752 895.554 41.0663 895.431 40.6869C895.308 40.3075 894.939 40.0376 894.551 40.1491L873.304 45.301C872.928 45.3939 872.653 45.8027 872.776 46.1821C872.861 46.5365 873.183 46.7801 873.54 46.7555C873.595 46.7222 873.626 46.7161 873.655 46.72ZM875.68 56.0606L914.136 45.2046C914.515 45.0918 914.75 44.6779 914.627 44.2985C914.516 43.9104 914.112 43.6764 913.732 43.7991L875.276 54.6551C874.898 54.7679 874.663 55.1818 874.775 55.56C874.861 55.9144 875.207 56.1307 875.533 56.1023C875.568 56.0664 875.619 56.0629 875.68 56.0606ZM878.09 65.6228L934.977 48.3621C935.356 48.2394 935.59 47.8354 935.469 47.446C935.356 47.0679 934.942 46.8326 934.574 46.9466L877.688 64.2074C877.298 64.3288 877.064 64.7328 877.186 65.1221C877.302 65.4705 877.612 65.6519 877.938 65.6334C878.005 65.6622 878.03 65.6251 878.09 65.6228ZM880.749 74.591L926.569 57.3948C926.942 57.2411 927.145 56.8431 926.996 56.4301C926.844 56.0468 926.446 55.8439 926.033 55.9925L880.221 73.2098C879.847 73.3635 879.633 73.7701 879.792 74.1845C879.902 74.5017 880.211 74.6931 880.538 74.6646C880.602 74.6326 880.684 74.623 880.749 74.591ZM883.752 83.4723L919.241 66.1936C919.617 66.02 919.754 65.5833 919.581 65.2073C919.397 64.8302 918.971 64.6843 918.596 64.8579L883.117 82.1379C882.741 82.3115 882.594 82.747 882.767 83.1229C882.911 83.4142 883.194 83.5719 883.49 83.5495C883.582 83.5412 883.668 83.5018 883.752 83.4723ZM887.014 92.1448L909.96 78.7795C910.308 78.5822 910.418 78.1217 910.242 77.7657C910.044 77.427 909.584 77.307 909.238 77.4845L886.293 90.8498C885.943 91.0571 885.833 91.5175 886.011 91.8636C886.149 92.1238 886.425 92.2504 886.69 92.2341C886.819 92.2508 886.904 92.2214 887.014 92.1448ZM889.59 98.4764L902.151 90.9901C902.491 90.7816 902.611 90.3224 902.403 89.9725C902.195 89.6325 901.736 89.5126 901.396 89.7211L888.835 97.2074C888.495 97.4159 888.385 97.8763 888.582 98.225C888.72 98.4852 889.006 98.6131 889.272 98.5869C889.388 98.5514 889.48 98.543 889.59 98.4764ZM1167.18 27.5576L1221.24 77.0298C1223.46 69.0969 1225.52 60.4354 1227.19 51.0764C1230.35 33.2064 1231.41 16.9215 1231.34 2.88554C1221.39 7.4371 1210.7 11.9831 1199.31 16.3485C1188.17 20.6256 1177.41 24.3352 1167.18 27.5576ZM813.157 17.2198C822.714 20.7876 831.999 23.9568 840.935 26.7879C834.215 32.989 827.253 39.8959 820.199 47.5988C809.396 59.3722 800.286 70.9501 792.634 81.7066C788.622 69.5339 784.823 55.3284 781.985 39.3081C779.616 25.9843 778.349 13.6714 777.732 2.58367C788.72 7.57866 800.526 12.5075 813.157 17.2198Z" fill="#F9B53F"/>
<path d="M1043.69 49.5027C1049.99 49.0443 1056.3 48.4767 1062.73 47.8027C1185.01 34.7303 1276.22 -16.9171 1331.19 -57.9351C1331.84 -58.407 1332.74 -58.2902 1333.25 -57.6396C1333.72 -56.983 1333.61 -56.0679 1332.96 -55.5662C1277.67 -14.3158 1185.98 37.6016 1063.04 50.721C1057.53 51.3217 1052.04 51.8046 1046.65 52.2183C1043.06 52.5015 1039.46 52.7438 1035.92 52.9229C917.365 59.6898 821.405 26.3044 760.11 -4.14691C759.4 -4.51136 759.089 -5.38973 759.449 -6.14109C759.814 -6.86136 760.683 -7.1733 761.433 -6.80371C823.717 24.1996 922.15 58.2177 1043.69 49.5027Z" fill="#F79748"/>
<path d="M212.902 58.6435C216.516 50.8951 219.4 43.5944 221.733 36.9508C210.508 37.775 198.64 38.3088 186.187 38.4636C175.097 38.604 164.459 38.4233 154.336 38.0044C158.085 43.65 161.929 49.95 165.746 56.9806C167.712 60.6249 169.689 64.4393 171.589 68.4354C177.713 81.2071 182.115 93.1511 185.305 103.616C192.224 94.7938 199.785 83.8287 206.914 70.607C209.103 66.5268 211.111 62.5307 212.902 58.6435Z" fill="#3BA27A"/>
<path d="M103.046 56.7814C105.44 53.5029 107.839 50.2642 110.243 46.9844L113.945 41.9514C115.679 39.5863 117.408 37.2522 119.142 34.8871C109.167 33.7321 98.6826 32.2389 87.7847 30.3548C76.2102 28.3157 65.2234 25.9785 54.8746 23.4983C56.1755 30.753 57.8657 38.6745 60.1753 47.0916L61.6794 52.4012C62.0898 53.7014 62.4928 55.0228 62.8958 56.3442C65.2979 63.9919 67.92 71.0759 70.5795 77.5895C71.4691 79.7065 72.326 81.7266 73.22 83.7218C74.5167 86.6446 75.8191 89.4555 77.0799 92.1002C79.7507 88.4628 82.4513 84.8215 85.1109 81.1754C86.2449 79.6352 87.379 78.095 88.5105 76.5349C93.3469 69.9616 98.2092 63.3547 103.046 56.7814Z" fill="#446DB7"/>
<path d="M-70.6985 -23.7181L-134.504 13.4907C-132.738 2.14347 -131.386 -10.8369 -131.007 -25.1761C-130.649 -38.3511 -131.226 -50.3954 -132.223 -61.0827C-124.351 -55.5759 -115.966 -50.0041 -107.113 -44.4827C-94.5389 -36.6648 -82.358 -29.7757 -70.6985 -23.7181ZM280.013 29.3595C270.325 31.1365 260.953 32.6202 251.939 33.8253C260.195 42.1507 269.385 52.7791 278.226 65.937C284.601 75.4143 289.641 84.4884 293.642 92.7071C297.964 83.3221 302.361 72.4125 306.197 60.0504C310.566 45.9531 313.29 32.9571 315.022 21.6647C304.063 24.4644 292.363 27.087 280.013 29.3595Z" fill="#F14947"/>
<path d="M-131.574 -45.0384C-131.917 -45.2768 -131.996 -45.7311 -131.758 -46.075L-125.011 -56.2279C-124.782 -56.5705 -124.329 -56.6593 -123.986 -56.4209C-123.642 -56.1826 -123.563 -55.7283 -123.791 -55.3857L-130.548 -45.2315C-130.71 -44.9985 -130.955 -44.8658 -131.2 -44.8847C-131.343 -44.8965 -131.46 -44.942 -131.574 -45.0384ZM-90.0561 -13.7738C-90.406 -13.9811 -90.516 -14.4415 -90.2777 -14.7854L-81.2171 -29.3879C-81.0099 -29.7379 -80.5594 -29.8466 -80.2168 -29.6182C-79.8768 -29.4096 -79.7568 -28.9505 -79.9952 -28.6066L-89.0544 -13.9941C-89.1963 -13.7637 -89.4728 -13.6371 -89.7375 -13.6534C-89.8295 -13.6617 -89.9452 -13.6973 -90.0561 -13.7738ZM-130.812 -26.8776C-131.162 -27.0849 -131.272 -27.5454 -131.064 -27.8854L-117.305 -51.3055C-117.098 -51.6554 -116.639 -51.7753 -116.299 -51.5668C-115.959 -51.3583 -115.839 -50.8991 -116.046 -50.5492L-129.809 -27.1588C-129.947 -26.8986 -130.223 -26.772 -130.499 -26.797C-130.611 -26.8027 -130.727 -26.8382 -130.812 -26.8776ZM-132.344 -7.39051C-132.684 -7.59905 -132.794 -8.0595 -132.566 -8.40208L-109.325 -45.8935C-109.126 -46.2322 -108.667 -46.3522 -108.323 -46.1138C-107.983 -45.9053 -107.873 -45.4448 -108.101 -45.1023L-131.333 -7.61211C-131.474 -7.38169 -131.751 -7.25507 -132.016 -7.27137C-132.108 -7.27968 -132.225 -7.32517 -132.344 -7.39051ZM-118.162 4.27937C-118.469 4.01602 -118.528 3.5591 -118.264 3.2524L-88.7721 -33.6935C-88.5101 -34.0101 -88.0532 -34.0692 -87.7452 -33.7959C-87.4385 -33.5326 -87.3807 -33.0856 -87.6428 -32.7689L-117.135 4.17696C-117.301 4.38015 -117.52 4.4792 -117.755 4.45906C-117.902 4.41743 -118.048 4.37579 -118.162 4.27937ZM-134.911 14.0886C-135.254 13.8602 -135.334 13.3959 -135.105 13.0533L-98.9774 -39.5957C-98.7391 -39.9395 -98.2847 -40.0184 -97.9409 -39.7801C-97.6082 -39.5504 -97.5181 -39.0874 -97.7564 -38.7435L-133.884 13.9055C-134.048 14.1285 -134.297 14.2314 -134.532 14.2113C-134.681 14.2305 -134.796 14.195 -134.911 14.0886ZM70.6145 77.6252C70.7634 77.6059 70.9374 77.6239 71.1201 77.6305C73.0786 77.7814 74.5007 79.4862 74.3485 81.4348C74.2753 82.3532 73.855 83.1649 73.2438 83.7489L70.6145 77.6252ZM83.7164 74.4477C85.4844 73.5931 87.5722 74.3534 88.4242 76.1015C88.4806 76.2255 88.5521 76.388 88.6024 76.543C87.4671 78.0733 86.343 79.6122 85.2028 81.1835C83.9182 81.1678 82.6902 80.4175 82.1048 79.1702C81.2217 77.416 81.9497 75.3122 83.7164 74.4477ZM61.7105 52.4071C62.0216 52.5486 62.4071 52.6402 62.7949 52.6709C64.7534 52.8218 66.412 51.3552 66.5642 49.4066C66.7077 47.4692 65.2658 45.767 63.3271 45.6136C62.0521 45.5158 60.9079 46.1181 60.2051 47.0875L61.7105 52.4071ZM79.6018 58.8612C81.5292 59.006 82.9824 60.7169 82.8289 62.6555C82.6867 64.6028 80.987 66.0646 79.0583 65.9099C77.1309 65.7651 75.679 64.0642 75.8312 62.1156C75.9747 60.1782 77.6744 58.7164 79.6018 58.8612ZM74.6225 31.8938C76.5512 32.0485 78.0031 33.7494 77.8509 35.698C77.7074 37.6354 76.0078 39.0972 74.0803 38.9524C72.1529 38.8076 70.6997 37.0967 70.8532 35.1581C70.9954 33.2108 72.664 31.7429 74.6225 31.8938ZM92.2165 44.2539C94.144 44.3987 95.5958 46.0996 95.4437 48.0482C95.3002 49.9856 93.6018 51.4573 91.6731 51.3026C89.7456 51.1577 88.2938 49.4568 88.436 47.5095C88.5894 45.5709 90.258 44.103 92.2165 44.2539ZM111.143 39.9602C112.448 40.0541 113.522 40.8647 114.036 41.9495L110.335 46.9926C108.504 46.7343 107.222 45.1022 107.362 43.2158C107.485 41.2711 109.184 39.8093 111.143 39.9602ZM313.058 32.886L291.811 27.734C291.435 27.6412 291.16 27.2324 291.283 26.8529C291.406 26.4735 291.775 26.2036 292.163 26.3151L313.41 31.467C313.786 31.5599 314.061 31.9687 313.938 32.3481C313.853 32.7025 313.531 32.9461 313.174 32.9215C313.119 32.8882 313.088 32.8821 313.058 32.886ZM311.034 42.2267L272.577 31.3706C272.199 31.2579 271.964 30.8439 272.087 30.4645C272.198 30.0764 272.602 29.8424 272.982 29.9651L311.438 40.8212C311.816 40.9339 312.051 41.3478 311.938 41.726C311.853 42.0804 311.507 42.2967 311.18 42.2683C311.145 42.2324 311.095 42.2289 311.034 42.2267ZM308.623 51.7888L251.737 34.5281C251.358 34.4054 251.124 34.0014 251.245 33.612C251.358 33.2339 251.772 32.9986 252.14 33.1126L309.026 50.3734C309.416 50.4948 309.65 50.8988 309.528 51.2881C309.412 51.6365 309.102 51.8179 308.776 51.7994C308.709 51.8282 308.684 51.7911 308.623 51.7888ZM305.965 60.757L260.145 43.5609C259.772 43.4071 259.569 43.0092 259.718 42.5961C259.87 42.2128 260.268 42.0099 260.681 42.1585L306.493 59.3758C306.867 59.5295 307.081 59.9361 306.922 60.3505C306.812 60.6677 306.503 60.8591 306.176 60.8306C306.112 60.7986 306.03 60.789 305.965 60.757ZM302.962 69.6383L267.473 52.3596C267.097 52.186 266.96 51.7493 267.133 51.3734C267.317 50.9962 267.742 50.8503 268.118 51.0239L303.597 68.3039C303.973 68.4775 304.12 68.913 303.947 69.2889C303.803 69.5802 303.52 69.7379 303.224 69.7155C303.132 69.7072 303.046 69.6678 302.962 69.6383ZM299.699 78.3108L276.754 64.9455C276.406 64.7482 276.296 64.2878 276.472 63.9317C276.67 63.593 277.13 63.4731 277.476 63.6505L300.421 77.0158C300.771 77.2231 300.881 77.6835 300.703 78.0296C300.565 78.2898 300.289 78.4165 300.024 78.4002C299.895 78.4168 299.81 78.3874 299.699 78.3108ZM297.124 84.6424L284.563 77.1562C284.223 76.9476 284.103 76.4885 284.31 76.1385C284.519 75.7985 284.978 75.6786 285.318 75.8871L297.879 83.3734C298.219 83.5819 298.329 84.0424 298.132 84.391C297.994 84.6512 297.707 84.7791 297.441 84.7529C297.326 84.7174 297.234 84.7091 297.124 84.6424ZM19.5373 13.7236L-34.5231 63.1959C-36.75 55.263 -38.8084 46.6014 -40.4722 37.2424C-43.6397 19.3724 -44.6937 3.08752 -44.6289 -10.9484C-34.679 -6.39688 -23.9824 -1.8509 -12.5921 2.51455C-1.4556 6.79161 9.30459 10.5012 19.5373 13.7236ZM373.557 3.38582C364 6.95365 354.715 10.1228 345.779 12.9539C352.498 19.155 359.46 26.0619 366.515 33.7649C377.318 45.5382 386.428 57.1161 394.08 67.8726C398.092 55.6999 401.891 41.4944 404.729 25.4741C407.098 12.1504 408.365 -0.162549 408.982 -11.2503C397.993 -6.25532 386.188 -1.32652 373.557 3.38582Z" fill="#F9B53F"/>
<path d="M143.026 35.6687C136.726 35.2103 130.411 34.6427 123.982 33.9687C1.7 20.8963 -89.5028 -30.751 -144.48 -71.7691C-145.127 -72.241 -146.031 -72.1242 -146.533 -71.4736C-147.003 -70.817 -146.895 -69.9018 -146.245 -69.4001C-90.9543 -28.1498 0.737935 23.7676 123.672 36.887C129.183 37.4878 134.669 37.9706 140.065 38.3843C143.656 38.6675 147.253 38.9098 150.79 39.0889C269.349 45.8558 365.309 12.4704 426.604 -17.9809C427.314 -18.3453 427.625 -19.2237 427.265 -19.9751C426.899 -20.6953 426.031 -21.0073 425.281 -20.6377C362.997 10.3656 264.564 44.3837 143.026 35.6687Z" fill="#F79748"/>
<path d="M577.098 561.061C586.113 560.705 595.572 560.489 605.381 560.489C662.215 560.489 708.346 567.002 708.346 575.079C708.346 575.639 708.114 576.162 707.72 576.691H708.177L708.852 617.063V618.319C708.909 620.271 708.909 622.228 708.965 624.137V625.269C709.021 628.871 709.077 632.478 709.141 636.079V637.077C709.591 651.445 709.816 665.728 710.041 679.972C685.731 686.615 647.258 694.562 599.425 694.039C558.456 693.645 525.025 687.181 502.297 681.32V576.513H502.923C502.586 576.038 502.41 575.553 502.41 575.079C502.41 570.345 518.45 566.091 543.33 563.449C553.301 562.36 564.75 561.53 577.098 561.061Z" fill="#F9B53F"/>
<path d="M616.148 556.408C616.999 556.364 617.842 556.364 618.693 556.499C621.246 556.887 623.623 558.057 625.268 559.88C627.139 557.276 630.767 555.712 634.621 555.798C638.418 555.933 641.815 557.626 643.46 560.273C644.986 558.02 648.221 556.715 651.505 557.017C654.62 557.276 657.286 558.969 658.193 561.276C659.044 560.839 662.496 559.012 667.314 559.448C673.206 559.971 676.272 563.449 676.666 563.918C677.348 563.53 680.745 561.621 685.506 562.096C691.174 562.662 694.008 566.134 694.345 566.571C697.067 565.05 700.751 564.786 703.698 565.961C708.002 567.654 708.515 571.299 708.515 571.515C708.459 572.431 708.459 573.386 708.459 574.302C697.805 570.738 684.486 567.088 668.734 564.533C645.331 560.748 624.931 560.748 609.91 561.708C592.344 561.314 571.093 561.929 547.352 564.964C530.405 567.137 515.391 570.129 502.417 573.299C502.41 572.69 502.41 572.129 502.41 571.515C502.754 568.954 504.962 566.786 508.021 565.961C512.22 564.829 515.785 566.83 516.066 566.959C516.242 566.614 518 563.093 523.042 562.096C528.365 561.012 532.444 563.746 532.676 563.918C534.146 561.357 537.317 559.621 540.946 559.448C546.276 559.19 549.391 562.532 549.504 562.705C550.186 561.929 551.937 560.101 555.116 559.233C559.194 558.144 563.955 559.103 567.408 561.664C567.584 561.314 568.885 558.71 572.513 557.804C575.572 557.017 579.081 557.842 581.353 559.837C581.859 559.19 583.167 557.712 585.656 557.017C588.947 556.019 592.913 556.758 595.804 558.839C596.085 558.408 597.386 556.321 600.332 555.583C603.68 554.801 607.702 556.068 609.91 558.839C610.48 558.365 612.632 556.672 616.148 556.408Z" fill="#F14947"/>
<path d="M685.506 500.836C684.149 506.045 684.317 511.56 683.748 516.817C683.129 522.543 682.39 528.28 681.708 534.049C680.464 545.339 678.987 556.623 677.461 567.913C677.004 571.477 684.261 571.477 684.711 567.913C686.075 556.844 687.151 545.727 688.002 534.615C688.452 529.056 688.733 523.503 688.966 517.944C689.191 512.471 690.21 506.74 689.528 501.273C689.359 499.58 686.019 498.928 685.506 500.836ZM653.207 494.194C652.356 496.798 652.87 499.623 652.982 502.271C653.151 505.268 653.376 508.217 653.545 511.215C653.889 517.335 654.17 523.503 654.452 529.622C655.021 541.737 655.303 553.847 655.584 565.961C655.64 569.563 663.01 569.563 662.897 565.961C662.44 553.847 661.596 541.737 660.513 529.622C660.007 523.675 659.381 517.728 658.706 511.733C658.362 508.74 658.08 505.786 657.68 502.788C657.286 499.968 657.286 496.755 655.872 494.151C655.359 493.369 653.601 493.11 653.207 494.194ZM632.35 495.019C630.88 500.75 632.125 507.306 632.35 513.167C632.582 519.723 632.35 526.236 632.293 532.749C632.125 545.646 631.675 558.494 630.479 571.342C630.198 574.599 636.885 574.599 637.167 571.342C638.306 558.494 638.925 545.597 638.644 532.749C638.475 526.409 637.905 520.068 637.511 513.733C637.279 510.563 636.998 507.393 636.604 504.222C636.26 501.144 636.147 497.973 634.734 495.019C634.333 494.237 632.638 494.065 632.35 495.019ZM606.457 499.882C606.626 511.258 606.057 522.635 606.514 534.005C606.964 545.382 607.308 556.758 607.702 568.129C607.815 571.385 614.502 571.385 614.333 568.129C613.708 556.758 613.025 545.382 612.463 534.005C611.893 522.586 610.311 511.258 609.46 499.882C609.404 498.405 606.457 498.405 606.457 499.882ZM581.634 496.976C580.558 502.443 581.746 508.347 581.803 513.906C581.859 519.853 582.147 525.756 582.26 531.703C582.429 543.559 582.091 555.496 581.521 567.353C581.353 571.213 589.172 571.213 589.397 567.353C590.023 555.453 589.911 543.603 589.172 531.703C588.835 525.756 588.378 519.809 587.414 513.906C586.964 510.951 586.395 508.002 585.881 505.004C585.431 502.314 585.262 499.58 584.018 496.976C583.729 496.151 581.859 495.93 581.634 496.976ZM558.85 506.74C556.93 511.997 557.893 518.332 557.837 523.761C557.837 529.584 557.718 535.353 557.661 541.171C557.661 546.988 557.605 552.763 557.549 558.58C557.493 564.533 556.867 570.609 557.436 576.556C557.718 579.856 563.674 579.813 564.068 576.556C564.75 570.647 564.236 564.533 564.18 558.58C564.124 552.763 563.955 546.988 563.786 541.171C563.618 535.353 563.217 529.584 562.879 523.761C562.535 518.332 563.048 511.911 560.608 506.74C560.327 506.093 559.138 506.045 558.85 506.74ZM532.163 502.055C532.275 500.405 535.165 500.491 535.391 502.055C537.374 513.604 537.999 525.282 538.794 536.874C539.188 542.47 539.589 548.115 540.039 553.717C540.271 556.58 540.433 559.405 540.552 562.268C540.608 564.921 541.002 567.87 539.87 570.431C538.85 572.647 534.033 573.122 533.351 570.431C532.676 567.789 533.239 564.964 533.239 562.268C533.295 559.405 533.126 556.58 533.07 553.717C532.901 548.115 532.732 542.47 532.5 536.874C532.05 525.325 531.424 513.647 532.163 502.055Z" fill="#F14947"/>
<path d="M502.353 681.104C512.445 684.054 526.671 687.617 544.005 690.259C570.242 694.211 590.698 694.039 606.113 693.818C622.659 693.602 645.5 693.171 674.17 687.569C689.134 684.614 701.314 681.142 710.041 678.322C709.422 677.799 708.796 677.233 708.114 676.716C707.383 676.236 704.943 674.85 701.659 674.979C697.749 675.109 694.233 677.233 692.707 680.403C692.081 680.021 689.191 678.236 685.168 678.5C681.202 678.754 677.742 680.889 676.216 683.924C675.928 683.66 673.495 681.32 669.472 681.358C666.125 681.401 663.066 683.142 661.821 685.747C661.477 685.482 657.968 682.964 652.926 683.617C647.595 684.312 645.444 687.914 645.275 688.178C644.705 687.785 641.702 685.833 637.223 686.048C632.125 686.313 629.403 689.219 629.009 689.607C627.821 687.181 624.586 685.617 621.19 685.881C617.786 686.097 614.952 688.092 614.333 690.653C614.045 690.389 610.191 687.046 604.355 687.526C599.77 687.914 597.161 690.437 596.711 690.874C596.479 690.61 593.589 687.353 588.321 687.353C583.786 687.353 581.008 689.742 580.614 690.087C579.707 687.353 576.648 685.353 573.02 685.137C569.51 684.922 566.163 686.313 564.574 688.701C564.293 688.308 561.916 685.31 556.986 684.749C551.656 684.145 548.027 686.83 547.69 687.132C547.408 686.701 545.538 683.876 541.171 682.964C535.96 681.881 531.881 684.528 531.6 684.749C531.368 684.312 529.554 681.358 525.081 680.36C520.096 679.233 516.122 681.493 515.729 681.708C515.215 679.584 513.232 677.799 510.518 677.104C507.628 676.365 504.393 676.98 502.241 678.667C502.297 679.492 502.353 680.317 502.353 681.104ZM502.466 573.299C504.625 571.649 507.853 571.083 510.687 571.865C513.352 572.604 515.279 574.383 515.729 576.556C516.129 576.335 520.096 574.167 525.025 575.337C529.441 576.421 531.143 579.376 531.368 579.812C531.649 579.591 535.735 577.03 540.89 578.206C545.2 579.16 547.008 582.023 547.24 582.46C547.577 582.195 551.262 579.51 556.529 580.244C561.402 580.896 563.674 583.888 563.955 584.325C565.601 581.937 568.997 580.594 572.457 580.853C576.078 581.155 579.025 583.198 579.876 585.932C580.277 585.587 583.054 583.198 587.583 583.285C592.801 583.371 595.635 586.714 595.804 586.929C596.254 586.455 598.919 584.023 603.511 583.673C609.348 583.241 613.025 586.627 613.314 586.929C613.989 584.368 616.823 582.46 620.226 582.239C623.623 582.066 626.801 583.635 627.934 586.104C628.271 585.716 631.105 582.848 636.147 582.632C640.627 582.46 643.573 584.503 644.079 584.848C644.255 584.584 646.463 580.982 651.787 580.378C656.779 579.812 660.176 582.33 660.513 582.589C661.765 580.028 664.88 578.335 668.221 578.335C672.187 578.335 674.571 580.724 674.852 580.982C676.441 577.941 679.95 575.903 683.867 575.688C687.833 575.467 690.667 577.289 691.286 577.726C692.875 574.599 696.441 572.518 700.294 572.431C703.585 572.388 705.906 573.774 706.644 574.254C707.27 574.771 707.889 575.337 708.515 575.86C699.788 578.551 687.601 581.899 672.7 584.584C644.143 589.798 621.527 589.884 605.093 589.884C589.798 589.884 569.51 589.754 543.611 585.409C526.439 582.551 512.445 578.766 502.529 575.639C502.466 574.906 502.466 574.081 502.466 573.299Z" fill="#F14947"/>
<path d="M650.486 665.641C649.466 665.641 648.671 666.25 648.671 667.032C648.671 667.814 649.466 668.423 650.486 668.423C651.505 668.423 652.3 667.814 652.3 667.032C652.3 666.25 651.505 665.641 650.486 665.641ZM662.103 654.357C661.139 654.357 660.401 654.917 660.401 655.656C660.401 656.395 661.139 656.961 662.103 656.961C663.066 656.961 663.805 656.395 663.805 655.656C663.805 654.96 663.066 654.357 662.103 654.357ZM631.956 661.824C630.768 661.824 629.748 662.563 629.748 663.522C629.748 664.471 630.711 665.21 631.956 665.21C633.201 665.21 634.164 664.471 634.164 663.522C634.164 662.563 633.144 661.824 631.956 661.824ZM550.355 667.647C548.773 667.647 547.465 668.639 547.465 669.852C547.465 671.071 548.773 672.068 550.355 672.068C551.944 672.068 553.245 671.071 553.245 669.852C553.245 668.639 551.944 667.647 550.355 667.647ZM680.52 663.522C679.613 663.522 678.931 664.078 678.931 664.73C678.931 665.426 679.669 665.949 680.52 665.949C681.427 665.949 682.109 665.382 682.109 664.73C682.109 664.078 681.371 663.522 680.52 663.522ZM606.169 678.581C604.812 678.581 603.736 679.406 603.736 680.452C603.736 681.493 604.812 682.317 606.169 682.317C607.533 682.317 608.609 681.493 608.609 680.452C608.609 679.406 607.533 678.581 606.169 678.581ZM581.296 662.476C579.025 662.476 577.218 663.862 577.218 665.598C577.218 667.334 579.025 668.731 581.296 668.731C583.561 668.731 585.375 667.334 585.375 665.598C585.375 663.862 583.561 662.476 581.296 662.476ZM553.245 652.75C551.825 652.75 550.692 653.618 550.692 654.702C550.692 655.785 551.825 656.659 553.245 656.659C554.659 656.659 555.791 655.785 555.791 654.702C555.854 653.618 554.659 652.75 553.245 652.75ZM531.882 661.387C530.348 661.387 529.104 662.342 529.104 663.522C529.104 664.687 530.348 665.641 531.882 665.641C533.407 665.641 534.659 664.687 534.659 663.522C534.659 662.342 533.407 661.387 531.882 661.387ZM652.75 607.854C651.73 607.854 650.943 608.463 650.943 609.25C650.943 610.027 651.73 610.636 652.75 610.636C653.777 610.636 654.564 610.027 654.564 609.25C654.564 608.463 653.713 607.854 652.75 607.854ZM664.311 592.445C663.347 592.445 662.616 593.006 662.616 593.744C662.616 594.488 663.347 595.049 664.311 595.049C665.274 595.049 666.013 594.488 666.013 593.744C666.013 593.006 665.274 592.445 664.311 592.445ZM636.717 596.305C635.528 596.305 634.509 597.044 634.509 598.004C634.509 598.958 635.472 599.697 636.717 599.697C637.961 599.697 638.925 598.958 638.925 598.004C638.925 597.044 637.905 596.305 636.717 596.305ZM552.563 609.854C550.974 609.854 549.673 610.852 549.673 612.07C549.673 613.283 550.974 614.281 552.563 614.281C554.152 614.281 555.453 613.283 555.453 612.07C555.51 610.852 554.209 609.854 552.563 609.854ZM682.728 605.73C681.821 605.73 681.146 606.296 681.146 606.943C681.146 607.638 681.884 608.167 682.728 608.167C683.635 608.167 684.317 607.595 684.317 606.943C684.317 606.296 683.579 605.73 682.728 605.73ZM608.609 611.892C607.252 611.892 606.169 612.723 606.169 613.763C606.169 614.804 607.252 615.629 608.609 615.629C609.966 615.629 611.042 614.804 611.042 613.763C611.042 612.723 609.966 611.892 608.609 611.892ZM592.006 598.872C589.742 598.872 587.928 600.257 587.928 601.993C587.928 603.729 589.742 605.126 592.006 605.126C594.271 605.126 596.085 603.729 596.085 601.993C596.085 600.257 594.271 598.872 592.006 598.872ZM555.51 594.963C554.096 594.963 552.964 595.831 552.964 596.914C552.964 598.004 554.096 598.872 555.51 598.872C556.93 598.872 558.062 598.004 558.062 596.914C558.062 595.831 556.93 594.963 555.51 594.963ZM536.867 605.73C536.867 606.9 535.623 607.854 534.09 607.854C532.564 607.854 531.312 606.9 531.312 605.73C531.312 604.554 532.564 603.605 534.09 603.605C535.679 603.605 536.867 604.554 536.867 605.73Z" fill="#F14947"/>
<path d="M679.669 672.111C678.312 672.111 677.236 672.936 677.236 673.977C677.236 675.028 678.312 675.848 679.669 675.848C681.033 675.848 682.109 675.028 682.109 673.977C682.109 672.936 681.033 672.111 679.669 672.111ZM619.432 670.505C618.525 670.505 617.73 671.071 617.73 671.809C617.73 672.505 618.468 673.109 619.432 673.109C620.339 673.109 621.133 672.548 621.133 671.809C621.133 671.071 620.339 670.505 619.432 670.505ZM571.437 652.534C570.298 652.534 569.391 653.224 569.391 654.092C569.391 654.961 570.298 655.656 571.437 655.656C572.569 655.656 573.477 654.961 573.477 654.092C573.477 653.224 572.569 652.534 571.437 652.534ZM511.137 642.247C509.554 642.247 508.303 643.196 508.303 644.42C508.303 645.628 509.554 646.587 511.137 646.587C512.726 646.587 513.971 645.628 513.971 644.42C513.971 643.196 512.67 642.247 511.137 642.247ZM511.137 665.949C509.554 665.949 508.303 666.903 508.303 668.116C508.303 669.335 509.554 670.289 511.137 670.289C512.726 670.289 513.971 669.335 513.971 668.116C513.921 666.946 512.67 665.949 511.137 665.949ZM687.489 653.489C685.224 653.489 683.354 654.917 683.354 656.659C683.354 658.395 685.224 659.829 687.489 659.829C689.76 659.829 691.624 658.395 691.624 656.659C691.624 654.917 689.76 653.489 687.489 653.489ZM681.877 614.324C680.52 614.324 679.444 615.149 679.444 616.195C679.444 617.236 680.52 618.06 681.877 618.06C683.241 618.06 684.317 617.236 684.317 616.195C684.317 615.149 683.241 614.324 681.877 614.324ZM621.64 612.723C620.733 612.723 619.945 613.283 619.945 614.028C619.945 614.761 620.676 615.327 621.64 615.327C622.547 615.327 623.342 614.761 623.342 614.028C623.342 613.283 622.547 612.723 621.64 612.723ZM573.645 594.747C572.513 594.747 571.606 595.437 571.606 596.305C571.606 597.179 572.513 597.869 573.645 597.869C574.778 597.869 575.685 597.179 575.685 596.305C575.685 595.437 574.778 594.747 573.645 594.747ZM513.352 584.455C511.762 584.455 510.518 585.409 510.518 586.627C510.518 587.841 511.762 588.795 513.352 588.795C514.934 588.795 516.186 587.841 516.186 586.627C516.186 585.409 514.878 584.455 513.352 584.455ZM513.352 608.167C511.762 608.167 510.518 609.116 510.518 610.334C510.518 611.547 511.762 612.507 513.352 612.507C514.934 612.507 516.186 611.547 516.186 610.334C516.186 609.116 514.878 608.167 513.352 608.167ZM692.531 591.62C692.531 593.356 690.66 594.79 688.396 594.79C686.132 594.79 684.261 593.356 684.261 591.62C684.261 589.884 686.132 588.45 688.396 588.45C690.66 588.45 692.531 589.841 692.531 591.62Z" fill="#456EB8"/>
<path d="M698.03 668.38C696.673 668.38 695.597 669.205 695.597 670.251C695.597 671.286 696.673 672.111 698.03 672.111C699.387 672.111 700.47 671.286 700.47 670.251C700.47 669.248 699.387 668.38 698.03 668.38ZM540.833 656.659C540.039 656.659 539.42 657.133 539.42 657.743C539.42 658.352 540.039 658.826 540.833 658.826C541.628 658.826 542.247 658.352 542.247 657.743C542.247 657.133 541.628 656.659 540.833 656.659ZM535.109 644.458C534.033 644.458 533.126 645.153 533.126 645.978C533.126 646.803 534.033 647.493 535.109 647.493C536.185 647.493 537.092 646.803 537.092 645.978C537.092 645.153 536.185 644.458 535.109 644.458ZM666.013 665.339C664.367 665.339 663.01 666.38 663.01 667.647C663.01 668.898 664.367 669.944 666.013 669.944C667.658 669.944 669.015 668.898 669.015 667.647C669.015 666.38 667.714 665.339 666.013 665.339ZM650.486 675.244C648.615 675.244 647.082 676.408 647.082 677.848C647.082 679.277 648.615 680.452 650.486 680.452C652.356 680.452 653.882 679.277 653.882 677.848C653.882 676.408 652.356 675.244 650.486 675.244ZM608.609 662.218C606.169 662.218 604.13 663.738 604.13 665.641C604.13 667.555 606.113 669.076 608.609 669.076C611.042 669.076 613.082 667.555 613.082 665.641C613.082 663.738 611.099 662.218 608.609 662.218ZM700.238 610.593C698.881 610.593 697.805 611.423 697.805 612.458C697.805 613.499 698.881 614.324 700.238 614.324C701.602 614.324 702.678 613.499 702.678 612.458C702.678 611.461 701.602 610.593 700.238 610.593ZM543.041 598.872C542.247 598.872 541.628 599.346 541.628 599.955C541.628 600.565 542.247 601.039 543.041 601.039C543.836 601.039 544.462 600.565 544.462 599.955C544.462 599.346 543.836 598.872 543.041 598.872ZM537.317 586.676C536.241 586.676 535.334 587.366 535.334 588.191C535.334 589.016 536.241 589.711 537.317 589.711C538.393 589.711 539.3 589.016 539.3 588.191C539.3 587.366 538.393 586.676 537.317 586.676ZM671.167 596.915C669.522 596.915 668.164 597.96 668.164 599.217C668.164 600.478 669.522 601.519 671.167 601.519C672.813 601.519 674.17 600.478 674.17 599.217C674.17 597.96 672.813 596.915 671.167 596.915ZM662.609 609.854C660.738 609.854 659.212 611.024 659.212 612.458C659.212 613.893 660.738 615.063 662.609 615.063C664.48 615.063 666.013 613.893 666.013 612.458C666.013 611.024 664.536 609.854 662.609 609.854ZM619.938 596.915C617.505 596.915 615.465 598.435 615.465 600.349C615.465 602.214 617.449 603.778 619.938 603.778C622.378 603.778 624.417 602.258 624.417 600.349C624.417 598.435 622.434 596.915 619.938 596.915ZM669.979 503.92C668.959 509.517 669.184 515.205 668.734 520.85C668.333 526.581 668.052 532.312 667.883 538.044C667.482 549.679 666.976 561.357 666.181 572.997C665.956 576.378 672.813 576.378 673.038 572.997C673.776 561.357 674.339 549.722 674.571 538.044C674.683 532.312 674.571 526.581 674.226 520.85C673.889 515.205 674.001 509.474 672.813 503.92C672.588 502.88 670.204 502.831 669.979 503.92ZM647.595 507.004C646.519 512.212 646.519 517.55 646.119 522.802C645.725 528.576 645.268 534.307 644.874 540.082C644.079 551.415 643.397 562.748 642.434 574.081C642.152 577.596 649.297 577.553 649.522 574.081C650.373 562.791 651.048 551.415 651.104 540.082C651.104 534.523 650.992 528.926 650.767 523.368C650.542 517.944 650.598 512.385 649.466 507.004C649.353 506.26 647.764 506.26 647.595 507.004ZM624.249 505.915C623.623 508.39 623.96 510.865 623.96 513.382C624.017 516.159 623.792 518.984 623.623 521.766C623.285 526.975 623.053 532.183 622.603 537.397C621.696 548.115 619.882 559.012 619.882 569.741C619.882 572.598 626.119 573.472 626.682 570.431C628.552 559.793 628.271 548.633 627.926 537.914C627.758 532.528 627.701 527.099 627.364 521.718C627.195 519.114 626.963 516.51 626.907 513.905C626.851 511.215 627.139 508.519 626.344 505.872C626.007 505.176 624.474 505.133 624.249 505.915ZM590.755 505.613C590.755 508.39 591.549 511.123 591.943 513.862C592.344 516.639 592.4 519.373 592.513 522.149C592.681 527.32 593.251 532.485 593.645 537.612C594.439 548.288 594.552 559.055 595.459 569.741C595.797 573.472 602.997 573.558 603.11 569.741C603.448 558.925 602.147 547.813 600.789 537.041C600.107 531.876 599.481 526.667 598.237 521.551C596.936 516.159 596.76 510.433 594.889 505.176C594.327 503.397 590.755 503.748 590.755 505.613ZM568.997 496.318C567.921 501.963 568.596 507.781 568.652 513.469C568.709 519.286 568.54 525.061 568.427 530.884C568.259 536.696 568.034 542.47 567.745 548.288C567.577 551.285 567.408 554.278 567.239 557.275C567.07 560.095 566.557 563.012 567.239 565.832C567.809 568.436 572.851 568.086 573.645 565.832C574.665 563.136 574.433 560.095 574.545 557.275C574.665 554.278 574.777 551.285 574.834 548.288C574.946 542.47 574.946 536.696 574.834 530.884C574.721 525.061 574.377 519.286 574.095 513.469C573.814 507.781 573.927 501.834 572.169 496.318C571.719 495.234 569.278 495.105 568.997 496.318ZM544.342 497.45C543.667 509.867 544.286 522.198 545.594 534.615C546.213 540.691 547.008 546.81 547.858 552.892C548.252 555.847 548.709 558.796 549.159 561.745C549.616 564.533 549.335 568.258 551.487 570.609C553.013 572.253 556.072 571.995 556.923 570.037C558.118 567.433 556.698 564.22 556.248 561.529C555.678 558.451 555.165 555.41 554.659 552.326C553.639 546.077 552.675 539.785 551.768 533.525C550.067 521.416 548.365 509.301 546.157 497.278C546.044 496.41 544.399 496.668 544.342 497.45ZM516.347 507.479C516.523 506.044 519.526 505.484 519.863 507.128C520.939 512.428 521.221 517.766 521.959 523.109C522.697 528.317 523.436 533.488 524.055 538.696C525.363 549.458 527.571 560.095 529.16 570.862C526.832 570.124 524.455 569.39 522.135 568.657C522.529 568.436 522.866 568.22 523.267 567.956C525.981 566.35 530.236 567.741 529.329 570.647C529.216 570.997 529.097 571.342 528.984 571.693C528.084 574.556 521.678 574.814 521.052 571.693C518.956 561.184 518.049 550.417 516.973 539.823C516.467 534.615 516.235 529.444 516.122 524.236C516.122 518.634 515.729 512.994 516.347 507.479Z" fill="#3BA27A"/>
<path d="M709.021 618.368C699.275 620.492 689.247 621.878 679.163 622.837C647.427 625.873 615.128 626.18 583.279 624.352C567.752 623.484 552.225 622.056 536.867 620.055C525.363 618.583 513.689 616.971 502.297 614.804V612.674C515.56 614.976 528.815 617.322 542.366 618.972C573.533 622.746 605.206 624.309 636.773 623.662C660.802 623.145 685.618 622.013 708.965 617.106C708.965 617.538 709.021 617.931 709.021 618.368ZM709.31 637.163C695.252 639.336 680.97 640.894 666.695 641.983C635.296 644.371 603.511 644.328 572.112 641.854C556.754 640.678 541.515 638.899 526.382 636.554C518.394 635.341 510.286 634.036 502.297 632.478V630.348C512.044 632.3 521.79 634.122 531.713 635.599C590.473 644.199 650.486 643.849 709.31 636.079V637.163ZM709.077 624.18C683.523 630.526 655.985 631.868 629.347 632.478C597.787 633.168 566.107 631.561 534.94 627.787C523.949 626.439 513.12 624.665 502.353 622.794V624.962C511.369 626.482 520.489 627.744 529.505 628.871C544.856 630.822 560.383 632.3 575.91 633.168C607.758 634.947 640.057 634.688 671.793 631.647C684.486 630.434 697.123 628.612 709.197 625.355C709.141 624.962 709.141 624.574 709.077 624.18ZM506.777 654.093C505.87 654.093 505.131 654.659 505.131 655.354C505.131 656.05 505.87 656.61 506.777 656.61C507.684 656.61 508.415 656.05 508.415 655.354C508.415 654.659 507.684 654.093 506.777 654.093ZM539.075 670.289C537.943 670.289 537.036 670.984 537.036 671.852C537.036 672.721 537.943 673.416 539.075 673.416C540.208 673.416 541.115 672.721 541.115 671.852C541.115 670.984 540.208 670.289 539.075 670.289ZM560.896 661.387C559.701 661.387 558.737 662.126 558.737 663.037C558.737 663.954 559.701 664.687 560.896 664.687C562.085 664.687 563.048 663.954 563.048 663.037C563.048 662.126 562.085 661.387 560.896 661.387ZM599.313 659.22C598.581 659.22 598.012 659.651 598.012 660.217C598.012 660.784 598.581 661.215 599.313 661.215C600.051 661.215 600.621 660.784 600.621 660.217C600.621 659.651 600.051 659.22 599.313 659.22ZM592.006 673.459C590.305 673.459 588.891 674.5 588.891 675.848C588.891 677.147 590.248 678.236 592.006 678.236C593.708 678.236 595.122 677.196 595.122 675.848C595.122 674.5 593.708 673.459 592.006 673.459ZM517.43 657.009C516.579 657.009 515.897 657.527 515.897 658.174C515.897 658.826 516.579 659.349 517.43 659.349C518.281 659.349 518.956 658.826 518.956 658.174C518.956 657.527 518.281 657.009 517.43 657.009ZM700.238 646.539C698.656 646.539 697.348 647.536 697.348 648.76C697.348 649.968 698.656 650.971 700.238 650.971C701.827 650.971 703.128 649.968 703.128 648.76C703.128 647.536 701.884 646.539 700.238 646.539ZM697.404 657.441C696.384 657.441 695.597 658.045 695.597 658.826C695.597 659.614 696.384 660.217 697.404 660.217C698.424 660.217 699.218 659.614 699.218 658.826C699.218 658.045 698.424 657.441 697.404 657.441ZM646.069 657.441C644.079 657.441 642.441 658.697 642.441 660.217C642.441 661.738 644.079 662.994 646.069 662.994C648.052 662.994 649.691 661.738 649.691 660.217C649.635 658.697 648.052 657.441 646.069 657.441ZM634.452 675.896C633.032 675.896 631.9 676.764 631.9 677.848C631.9 678.932 633.032 679.8 634.452 679.8C635.866 679.8 636.998 678.932 636.998 677.848C636.998 676.764 635.866 675.896 634.452 675.896ZM573.019 673.804C571.55 673.804 570.354 674.715 570.354 675.848C570.354 676.98 571.55 677.886 573.019 677.886C574.496 677.886 575.685 676.98 575.685 675.848C575.685 674.715 574.496 673.804 573.019 673.804ZM517.205 647.714C515.391 647.714 513.914 648.841 513.914 650.232C513.914 651.618 515.391 652.75 517.205 652.75C519.02 652.75 520.489 651.618 520.489 650.232C520.489 648.841 519.02 647.714 517.205 647.714ZM508.985 596.305C508.078 596.305 507.346 596.877 507.346 597.567C507.346 598.263 508.078 598.829 508.985 598.829C509.892 598.829 510.63 598.263 510.63 597.567C510.63 596.877 509.892 596.305 508.985 596.305ZM541.283 612.507C540.151 612.507 539.244 613.197 539.244 614.065C539.244 614.933 540.151 615.629 541.283 615.629C542.423 615.629 543.33 614.933 543.33 614.065C543.33 613.197 542.423 612.507 541.283 612.507ZM563.104 603.606C561.916 603.606 560.952 604.339 560.952 605.25C560.952 606.161 561.916 606.9 563.104 606.9C564.293 606.9 565.256 606.161 565.256 605.25C565.256 604.339 564.293 603.606 563.104 603.606ZM605.494 596.305C604.756 596.305 604.186 596.742 604.186 597.314C604.186 597.869 604.756 598.306 605.494 598.306C606.225 598.306 606.795 597.869 606.795 597.314C606.795 596.785 606.225 596.305 605.494 596.305ZM589.116 610.334C587.414 610.334 586.001 611.375 586.001 612.723C586.001 614.065 587.358 615.111 589.116 615.111C590.818 615.111 592.231 614.065 592.231 612.723C592.231 611.375 590.818 610.334 589.116 610.334ZM519.638 599.217C518.788 599.217 518.113 599.74 518.113 600.387C518.113 601.039 518.788 601.562 519.638 601.562C520.489 601.562 521.171 601.039 521.171 600.387C521.171 599.74 520.489 599.217 519.638 599.217ZM702.566 582.196C700.976 582.196 699.675 583.198 699.675 584.412C699.675 585.63 700.976 586.627 702.566 586.627C704.148 586.627 705.456 585.63 705.456 584.412C705.456 583.198 704.148 582.196 702.566 582.196ZM699.675 599.697C698.656 599.697 697.861 600.301 697.861 601.082C697.861 601.87 698.656 602.473 699.675 602.473C700.695 602.473 701.49 601.87 701.49 601.082C701.434 600.301 700.639 599.697 699.675 599.697ZM650.943 596.915C648.953 596.915 647.314 598.182 647.314 599.697C647.314 601.217 648.953 602.473 650.943 602.473C652.926 602.473 654.564 601.217 654.564 599.697C654.508 598.133 652.926 596.915 650.943 596.915ZM637.961 609.854C636.548 609.854 635.416 610.723 635.416 611.806C635.416 612.895 636.548 613.763 637.961 613.763C639.382 613.763 640.514 612.895 640.514 611.806C640.514 610.723 639.382 609.854 637.961 609.854ZM573.019 607.854C571.55 607.854 570.354 608.771 570.354 609.903C570.354 611.024 571.55 611.936 573.019 611.936C574.496 611.936 575.685 611.024 575.685 609.903C575.685 608.771 574.496 607.854 573.019 607.854ZM522.697 592.445C522.697 593.836 521.228 594.963 519.413 594.963C517.599 594.963 516.129 593.836 516.129 592.445C516.129 591.054 517.599 589.933 519.413 589.933C521.228 589.933 522.697 591.054 522.697 592.445Z" fill="#FAE0C9"/>
<path d="M692.763 488.813C694.007 484.209 689.303 480.78 688.965 480.564C688.677 481.432 688.227 482.78 687.432 484.338C685.731 487.681 684.148 488.77 684.542 490.328C684.767 491.201 685.674 492.415 688.965 493.585C689.873 493.024 692.081 491.46 692.763 488.813ZM674.346 496.496C675.196 493.283 671.905 490.851 671.68 490.722C671.512 491.331 671.167 492.285 670.604 493.369C669.416 495.714 668.277 496.453 668.565 497.537C668.734 498.146 669.36 499.014 671.68 499.796C672.306 499.451 673.832 498.318 674.346 496.496ZM658.53 485.249C659.782 480.65 655.078 477.221 654.733 477C654.452 477.868 654.002 479.216 653.207 480.78C651.505 484.122 649.916 485.206 650.317 486.77C650.542 487.638 651.449 488.856 654.733 490.026C655.64 489.46 657.855 487.859 658.53 485.249ZM650.542 497.623C651.561 493.892 647.764 491.158 647.483 490.98C647.258 491.676 646.913 492.765 646.238 494.021C644.874 496.712 643.573 497.58 643.91 498.841C644.079 499.537 644.818 500.534 647.483 501.446C648.221 500.966 649.979 499.709 650.542 497.623ZM633.313 490.937C636.147 489.767 636.885 488.549 637.11 487.681C637.455 486.117 636.091 485.033 634.621 481.691C633.939 480.127 633.545 478.785 633.313 477.917C633.032 478.132 629.066 481.561 630.085 486.166C630.711 488.813 632.582 490.414 633.313 490.937ZM627.42 498.491C628.327 495.019 624.818 492.458 624.586 492.285C624.417 492.938 624.024 493.935 623.454 495.105C622.153 497.623 620.965 498.405 621.302 499.58C621.471 500.232 622.153 501.144 624.642 502.012C625.212 501.661 626.914 500.448 627.42 498.491ZM612.006 488.813C613.257 484.209 608.553 480.78 608.208 480.564C607.927 481.432 607.477 482.78 606.682 484.338C604.981 487.681 603.398 488.77 603.792 490.328C604.017 491.201 604.924 492.415 608.208 493.585C609.115 493.024 611.331 491.46 612.006 488.813ZM595.747 496.194C596.598 492.938 593.307 490.463 593.082 490.328C592.913 490.937 592.569 491.897 592.006 493.024C590.818 495.412 589.679 496.151 589.967 497.278C590.136 497.93 590.754 498.755 593.082 499.58C593.708 499.143 595.234 498.016 595.747 496.194ZM585.825 489.546C586.732 486.166 583.279 483.648 583.054 483.513C582.878 484.165 582.541 485.12 581.915 486.295C580.67 488.727 579.482 489.546 579.763 490.678C579.932 491.331 580.614 492.199 582.991 493.067C583.673 492.63 585.319 491.46 585.825 489.546ZM574.44 486.942C575.685 482.343 570.98 478.914 570.643 478.693C570.354 479.561 569.904 480.909 569.11 482.472C567.408 485.815 565.826 486.904 566.219 488.463C566.444 489.331 567.352 490.549 570.643 491.719C571.493 491.115 573.702 489.546 574.44 486.942ZM561.627 498.232C562.309 495.628 559.701 493.719 559.532 493.585C559.363 494.064 559.138 494.846 558.688 495.714C557.717 497.58 556.817 498.189 557.042 499.057C557.155 499.58 557.661 500.232 559.532 500.879C559.989 500.577 561.234 499.666 561.627 498.232ZM548.203 489.897C549.166 486.338 545.538 483.648 545.249 483.513C545.024 484.209 544.687 485.206 544.061 486.425C542.76 489.029 541.515 489.854 541.797 491.067C541.965 491.762 542.648 492.673 545.2 493.585C545.932 493.153 547.69 491.935 548.203 489.897ZM532.219 495.542C535.053 494.366 535.847 493.153 536.016 492.285C536.354 490.722 534.997 489.638 533.52 486.295C532.845 484.732 532.444 483.384 532.219 482.516C531.938 482.731 527.915 486.166 528.991 490.765C529.617 493.412 531.537 495.019 532.219 495.542ZM519.87 497.321C521.115 492.717 516.411 489.287 516.066 489.072C515.785 489.94 515.335 491.288 514.54 492.851C512.838 496.194 511.249 497.278 511.65 498.841C511.875 499.709 512.782 500.923 516.066 502.098C516.917 501.532 519.188 499.925 519.87 497.321Z" fill="#F9B53F"/>
</g>
<defs>
<clipPath id="clip0_6_181">
<rect width="1200" height="630" fill="white"/>
</clipPath>
</defs>
</svg>
