<svg width="599" height="353" viewBox="0 0 599 353" fill="none" xmlns="http://www.w3.org/2000/svg">
<path d="M259.465 252.722C253.213 247.249 247.804 241.894 243.151 236.91C253.829 233.356 264.991 229.299 276.551 224.685C286.848 220.577 296.605 216.358 305.798 212.125C304.458 218.548 303.277 225.585 302.395 233.258C301.949 237.231 301.557 241.358 301.305 245.617C300.451 259.247 300.877 271.488 301.865 281.958C292.157 276.798 281.05 269.987 269.494 261.016C265.938 258.243 262.58 255.476 259.465 252.722Z" fill="#3BA27A"/>
<path d="M360.233 209.157C356.789 207.172 353.355 205.223 349.901 203.241L344.589 200.203C342.098 198.773 339.624 197.369 337.133 195.939C345.912 191.112 355.034 185.791 364.392 179.967C374.315 173.747 383.585 167.488 392.211 161.346C393.737 168.258 395.155 175.907 396.186 184.231L396.794 189.5C396.903 190.806 397.028 192.129 397.153 193.451C397.81 201.13 398.052 208.394 398.044 215.169C398.019 217.38 397.987 219.493 397.911 221.599C397.813 224.678 397.667 227.66 397.497 230.48C393.662 228.283 389.799 226.093 385.971 223.884C384.344 222.955 382.718 222.026 381.086 221.078C374.147 217.111 367.172 213.124 360.233 209.157Z" fill="#446DB7"/>
<path d="M490.441 71.6805L563.366 80.236C557.469 70.876 551.338 59.9142 545.596 47.3795C540.312 35.8661 536.316 24.9958 533.218 15.1652C528.018 23.0382 522.368 31.1646 516.267 39.425C507.593 51.1357 498.933 61.8752 490.441 71.6805ZM186.466 252.435C196.082 250.31 205.297 248.046 214.076 245.672C209.581 256.184 205.089 269.089 201.871 284.097C199.547 294.91 198.303 304.857 197.698 313.651C190.178 307.001 182.014 299.032 173.822 289.565C164.486 278.766 157.083 268.314 151.237 258.99C162.412 257.283 174.204 255.138 186.466 252.435Z" fill="#F14947"/>
<path d="M538.651 29.6C538.879 29.2581 538.781 28.8262 538.432 28.6131L528.382 22.21C528.042 21.9942 527.591 22.0885 527.363 22.4305C527.135 22.7724 527.233 23.2043 527.572 23.4201L537.632 29.8205C537.869 29.9648 538.145 29.9885 538.364 29.8784C538.492 29.8134 538.583 29.7286 538.651 29.6ZM512.06 73.0875C512.305 72.7707 512.234 72.3215 511.884 72.1084L498.025 62.6534C497.702 62.4231 497.245 62.4989 497.014 62.8315C496.779 63.1457 496.84 63.5975 497.19 63.8106L511.052 73.2748C511.27 73.4244 511.573 73.4309 511.811 73.3155C511.893 73.273 511.986 73.1975 512.06 73.0875ZM544.777 45.949C545.023 45.6322 544.951 45.1831 544.631 44.962L523.116 29.5027C522.793 29.2723 522.324 29.3415 522.088 29.6556C521.853 29.9698 521.914 30.4216 522.238 30.6519L543.744 46.0834C543.97 46.2608 544.273 46.2673 544.518 46.14C544.619 46.0922 544.713 46.0166 544.777 45.949ZM553.52 62.596C553.755 62.2818 553.684 61.8327 553.344 61.617L517.78 37.3334C517.469 37.1097 517 37.1788 516.772 37.5208C516.536 37.8349 516.608 38.2841 516.947 38.4998L552.502 62.786C552.72 62.9356 553.023 62.9421 553.261 62.8267C553.343 62.7842 553.434 62.6994 553.52 62.596ZM544.808 78.3266C544.993 77.9767 544.875 77.5501 544.517 77.3794L503.384 55.9635C503.023 55.7835 502.579 55.9056 502.397 56.2648C502.213 56.6147 502.327 57.032 502.688 57.212L543.821 78.6279C544.051 78.7443 544.291 78.7482 544.5 78.6407C544.62 78.5479 544.74 78.4551 544.808 78.3266ZM563.967 80.6093C564.198 80.2767 564.097 79.8355 563.758 79.6197L510.591 46.8505C510.241 46.6374 509.792 46.741 509.564 47.0829C509.343 47.413 509.434 47.8568 509.783 48.0699L562.95 80.8391C563.185 80.9741 563.454 80.97 563.663 80.8626C563.808 80.8227 563.901 80.7472 563.967 80.6093ZM398.026 215.214C397.881 215.254 397.727 215.336 397.561 215.411C395.808 216.292 395.136 218.342 396.009 220.007C396.422 220.791 397.116 221.349 397.9 221.632L398.026 215.214ZM384.729 217.403C382.775 217.322 381.133 218.791 381.003 220.662C380.997 220.793 380.992 220.964 381.004 221.121C382.628 222.04 384.245 222.972 385.889 223.927C387.07 223.423 387.922 222.291 387.994 220.964C388.15 219.076 386.686 217.494 384.729 217.403ZM396.767 189.517C396.533 189.761 396.211 189.989 395.865 190.164C394.113 191.045 392.029 190.381 391.156 188.716C390.295 187.058 390.987 185.002 392.719 184.127C393.86 183.554 395.144 183.65 396.157 184.239L396.767 189.517ZM382.669 202.051C380.943 202.915 380.244 204.982 381.115 206.638C381.979 208.305 384.098 208.949 385.821 208.076C387.547 207.213 388.249 205.155 387.375 203.49C386.514 201.832 384.395 201.188 382.669 202.051ZM377.128 176.305C375.404 177.178 374.703 179.236 375.576 180.901C376.437 182.559 378.557 183.203 380.283 182.34C382.008 181.476 382.707 179.409 381.837 177.753C380.973 176.086 378.88 175.425 377.128 176.305ZM365.525 193.948C363.799 194.812 363.097 196.87 363.971 198.535C364.832 200.193 366.954 200.846 368.677 199.973C370.403 199.11 371.104 197.052 370.241 195.384C369.37 193.729 367.277 193.067 365.525 193.948ZM346.429 197.373C345.259 197.954 344.572 199.081 344.505 200.236L349.82 203.283C351.414 202.356 351.984 200.424 351.145 198.809C350.301 197.136 348.181 196.492 346.429 197.373ZM157.27 268.163L174.958 255.5C175.27 255.274 175.37 254.808 175.114 254.519C174.858 254.23 174.416 254.133 174.1 254.379L156.412 267.042C156.1 267.268 155.999 267.734 156.255 268.023C156.467 268.304 156.856 268.396 157.177 268.238C157.215 268.188 157.241 268.171 157.27 268.163ZM162.653 275.65L194.09 251.376C194.397 251.132 194.459 250.677 194.203 250.388C193.954 250.087 193.493 250.035 193.189 250.288L161.751 274.561C161.444 274.805 161.382 275.261 161.629 275.552C161.841 275.833 162.241 275.892 162.533 275.742C162.551 275.697 162.597 275.675 162.653 275.65ZM168.474 283.185L214.527 246.216C214.831 245.963 214.895 245.517 214.637 245.219C214.391 244.927 213.92 244.877 213.623 245.118L167.57 282.087C167.256 282.343 167.192 282.79 167.45 283.088C167.689 283.351 168.043 283.394 168.337 283.253C168.41 283.253 168.419 283.21 168.474 283.185ZM174.302 290.101L210.157 257.412C210.444 257.133 210.482 256.704 210.189 256.396C209.905 256.115 209.461 256.087 209.135 256.376L173.295 289.081C173.008 289.36 172.963 289.801 173.265 290.107C173.486 290.345 173.843 290.397 174.135 290.247C174.182 290.194 174.254 290.154 174.302 290.101ZM180.416 296.808L206.698 267.988C206.98 267.691 206.942 267.253 206.64 266.986C206.329 266.723 205.881 266.756 205.599 267.053L179.327 295.871C179.045 296.168 179.073 296.609 179.375 296.875C179.617 297.078 179.938 297.109 180.202 296.977C180.284 296.934 180.349 296.867 180.416 296.808ZM186.69 303.232L202.858 282.659C203.105 282.351 203.034 281.902 202.737 281.654C202.426 281.431 201.957 281.5 201.704 281.789L185.537 302.362C185.291 302.679 185.363 303.128 185.657 303.366C185.882 303.544 186.185 303.55 186.424 303.435C186.549 303.4 186.616 303.342 186.69 303.232ZM191.449 307.848L200.236 296.436C200.472 296.121 200.41 295.67 200.087 295.439C199.767 295.218 199.297 295.287 199.062 295.601L190.275 307.014C190.039 307.328 190.111 307.777 190.424 308.01C190.649 308.188 190.962 308.192 191.198 308.067C191.291 307.991 191.373 307.949 191.449 307.848ZM421.174 139.22L489.71 162.337C488.784 154.473 487.428 146.029 485.446 137.118C481.652 120.108 476.502 105.306 471.164 92.9194C463.685 100.741 455.515 108.842 446.636 117.048C437.958 125.08 429.414 132.466 421.174 139.22ZM90.2976 265.162C100.467 264.67 110.235 263.929 119.553 263.023C115.678 271.07 111.845 279.834 108.225 289.337C102.675 303.87 98.6134 317.584 95.591 330.015C87.3082 320.782 78.4569 309.671 69.8115 296.588C62.6138 285.71 56.8136 275.306 52.0741 265.737C64.102 265.961 76.8591 265.815 90.2976 265.162Z" fill="#F9B53F"/>
<path d="M315.366 205.744C321.013 202.935 326.632 200.023 332.317 196.974C440.347 138.756 505.165 58.2865 540.521 1.03863C540.941 0.374602 541.82 0.132972 542.528 0.516812C543.209 0.917889 543.454 1.76836 543.041 2.46021C507.484 60.0328 442.315 140.928 333.7 199.436C328.836 202.071 323.951 204.591 319.122 207.015C315.912 208.636 312.681 210.223 309.481 211.731C202.519 262.953 101.332 270.048 33.2669 266.509C32.4737 266.458 31.8565 265.8 31.9062 264.998C31.9732 264.222 32.658 263.615 33.4898 263.655C102.676 267.304 206.385 259.825 315.366 205.744Z" fill="#F79748"/>
</svg>
